# Blender v2.91.2 OBJ File: ''
# www.blender.org
mtllib dumper.mtl
o Cilindro_Cilindro.001
v 0.000000 0.546589 0.018373
v 0.000000 0.119149 0.018373
v -0.015912 0.546589 0.009187
v -0.015912 0.119149 0.009187
v -0.015912 0.546589 -0.009187
v -0.015912 0.119149 -0.009187
v 0.000000 0.546589 -0.018373
v 0.000000 0.119149 -0.018373
v 0.015912 0.546589 -0.009187
v 0.015912 0.119149 -0.009187
v 0.015912 0.546589 0.009187
v 0.015912 0.119149 0.009187
vt 1.000000 0.500000
vt 0.833333 0.500000
vt 0.833333 1.000000
vt 1.000000 1.000000
vt 0.666667 0.500000
vt 0.666667 1.000000
vt 0.500000 0.500000
vt 0.500000 1.000000
vt 0.333333 0.500000
vt 0.333333 1.000000
vt 0.457846 0.370000
vt 0.457846 0.130000
vt 0.250000 0.010000
vt 0.042154 0.130000
vt 0.042154 0.370000
vt 0.250000 0.490000
vt 0.166667 0.500000
vt 0.166667 1.000000
vt -0.000000 0.500000
vt -0.000000 1.000000
vt 0.750000 0.490000
vt 0.542154 0.370000
vt 0.542154 0.130000
vt 0.750000 0.010000
vt 0.957846 0.130000
vt 0.957846 0.370000
vn -0.5000 0.0000 0.8660
vn -1.0000 0.0000 -0.0000
vn -0.5000 0.0000 -0.8660
vn 0.5000 0.0000 -0.8660
vn 0.0000 -1.0000 0.0000
vn 1.0000 0.0000 0.0000
vn 0.5000 0.0000 0.8660
vn 0.0000 1.0000 0.0000
usemtl None
s off
f 1/1/1 3/2/1 4/3/1 2/4/1
f 3/2/2 5/5/2 6/6/2 4/3/2
f 5/5/3 7/7/3 8/8/3 6/6/3
f 7/7/4 9/9/4 10/10/4 8/8/4
f 4/11/5 6/12/5 8/13/5 10/14/5 12/15/5 2/16/5
f 9/9/6 11/17/6 12/18/6 10/10/6
f 11/17/7 1/19/7 2/20/7 12/18/7
f 1/21/8 11/22/8 9/23/8 7/24/8 5/25/8 3/26/8
o Cilindro.001_Cilindro.002
v 0.000000 0.362829 0.036016
v 0.000000 0.001746 0.036016
v -0.031191 0.362829 0.018008
v -0.031191 0.001746 0.018008
v -0.031191 0.362829 -0.018008
v -0.031191 0.001746 -0.018008
v 0.000000 0.362829 -0.036016
v 0.000000 0.001746 -0.036016
v 0.031191 0.362829 -0.018008
v 0.031191 0.001746 -0.018008
v 0.031191 0.362829 0.018008
v 0.031191 0.001746 0.018008
vt 1.000000 0.500000
vt 0.833333 0.500000
vt 0.833333 1.000000
vt 1.000000 1.000000
vt 0.666667 0.500000
vt 0.666667 1.000000
vt 0.500000 0.500000
vt 0.500000 1.000000
vt 0.333333 0.500000
vt 0.333333 1.000000
vt 0.457846 0.370000
vt 0.457846 0.130000
vt 0.250000 0.010000
vt 0.042154 0.130000
vt 0.042154 0.370000
vt 0.250000 0.490000
vt 0.166667 0.500000
vt 0.166667 1.000000
vt -0.000000 0.500000
vt -0.000000 1.000000
vt 0.750000 0.490000
vt 0.542154 0.370000
vt 0.542154 0.130000
vt 0.750000 0.010000
vt 0.957846 0.130000
vt 0.957846 0.370000
vn -0.5000 0.0000 0.8660
vn -1.0000 0.0000 -0.0000
vn -0.5000 0.0000 -0.8660
vn 0.5000 0.0000 -0.8660
vn 0.0000 -1.0000 0.0000
vn 1.0000 0.0000 0.0000
vn 0.5000 0.0000 0.8660
vn 0.0000 1.0000 0.0000
usemtl None
s off
f 13/27/9 15/28/9 16/29/9 14/30/9
f 15/28/10 17/31/10 18/32/10 16/29/10
f 17/31/11 19/33/11 20/34/11 18/32/11
f 19/33/12 21/35/12 22/36/12 20/34/12
f 16/37/13 18/38/13 20/39/13 22/40/13 24/41/13 14/42/13
f 21/35/14 23/43/14 24/44/14 22/36/14
f 23/43/15 13/45/15 14/46/15 24/44/15
f 13/47/16 23/48/16 21/49/16 19/50/16 17/51/16 15/52/16
o Cilindro.002_Cilindro.003
v -0.021724 0.547493 0.039290
v 0.021724 0.547493 0.039290
v -0.021724 0.513467 0.019645
v 0.021724 0.513467 0.019645
v -0.021724 0.513467 -0.019645
v 0.021724 0.513467 -0.019645
v -0.021724 0.547493 -0.039290
v 0.021724 0.547493 -0.039290
v -0.021724 0.581520 -0.019645
v 0.021724 0.581520 -0.019645
v -0.021724 0.581520 0.019645
v 0.021724 0.581520 0.019645
vt 1.000000 0.500000
vt 0.833333 0.500000
vt 0.833333 1.000000
vt 1.000000 1.000000
vt 0.666667 0.500000
vt 0.666667 1.000000
vt 0.500000 0.500000
vt 0.500000 1.000000
vt 0.333333 0.500000
vt 0.333333 1.000000
vt 0.457846 0.370000
vt 0.457846 0.130000
vt 0.250000 0.010000
vt 0.042154 0.130000
vt 0.042154 0.370000
vt 0.250000 0.490000
vt 0.166667 0.500000
vt 0.166667 1.000000
vt -0.000000 0.500000
vt -0.000000 1.000000
vt 0.750000 0.490000
vt 0.542154 0.370000
vt 0.542154 0.130000
vt 0.750000 0.010000
vt 0.957846 0.130000
vt 0.957846 0.370000
vn 0.0000 -0.5000 0.8660
vn 0.0000 -1.0000 0.0000
vn 0.0000 -0.5000 -0.8660
vn 0.0000 0.5000 -0.8660
vn 1.0000 -0.0000 0.0000
vn 0.0000 1.0000 0.0000
vn 0.0000 0.5000 0.8660
vn -1.0000 0.0000 0.0000
usemtl None
s off
f 25/53/17 27/54/17 28/55/17 26/56/17
f 27/54/18 29/57/18 30/58/18 28/55/18
f 29/57/19 31/59/19 32/60/19 30/58/19
f 31/59/20 33/61/20 34/62/20 32/60/20
f 28/63/21 30/64/21 32/65/21 34/66/21 36/67/21 26/68/21
f 33/61/22 35/69/22 36/70/22 34/62/22
f 35/69/23 25/71/23 26/72/23 36/70/23
f 25/73/24 35/74/24 33/75/24 31/76/24 29/77/24 27/78/24
