                                                                        S0000001
,,31HOpen CASCADE IGES processor 7.7,13HFilename.iges,                  G0000001
16HOpen CASCADE 7.7,31HOpen CASCADE IGES processor 7.7,32,308,15,308,15,G0000002
,1.,2,2HMM,1,0.01,15H20260224.152912,1E-07,1000.,7Hgustavo,,11,0,       G0000003
15H20260224.152912,;                                                    G0000004
     402       1       0       0       0       0       0       000000000D0000001
     402       0       0       1       1                               0D0000002
     110       2       0       0       0       0       0       000020000D0000003
     110       0       0       1       0                               0D0000004
     110       3       0       0       0       0       0       000020000D0000005
     110       0       0       1       0                               0D0000006
     100       4       0       0       0       0       9       000020000D0000007
     100       0       0       1       0                               0D0000008
     124       5       0       0       0       0       0       000000000D0000009
     124       0       0       1       0                               0D0000010
     116       6       0       0       0       0       0       000020400D0000011
     116       0       0       1       0                               0D0000012
402,4,3,5,7,11;                                                  0000001P0000001
110,0.,0.,0.,970.,0.,0.;                                         0000003P0000002
110,1.E+03,30.,0.,1.E+03,500.,0.;                                0000005P0000003
100,0.,0.,0.,0.,30.,-30.,3.552713679E-15;                        0000007P0000004
124,-1.,0.,-0.,970.,0.,-1.,0.,30.,0.,-0.,1.,0.;                  0000009P0000005
116,970.,30.,0.,0;                                               0000011P0000006
S      1G      4D     12P      6                                        T0000001
