# Blender v2.93.5 OBJ File: ''
# www.blender.org
mtllib compressor_discharge.mtl
o compressor_discharge
v -0.700000 0.025000 0.700000
v -0.450000 0.025000 0.700000
v -0.450000 0.060000 0.700000
v -0.300000 -0.000000 0.700000
v -0.450000 -0.060000 0.700000
v -0.850000 -0.700000 0.700000
v -0.450000 -0.025000 0.700000
v -0.700000 -0.025000 0.700000
v -0.850000 0.700000 0.700000
v -0.150000 0.700000 0.700000
v -0.150000 -0.700000 0.700000
v -0.700000 0.700000 -0.025000
v -0.450000 0.700000 -0.025000
v -0.450000 0.700000 -0.060000
v -0.300000 0.700000 -0.000000
v -0.450000 0.700000 0.060000
v -0.450000 0.700000 0.025000
v -0.700000 0.700000 0.025000
v -0.850000 0.700000 -0.700000
v -0.150000 0.700000 -0.700000
v -0.700000 -0.025000 -0.700000
v -0.450000 -0.025000 -0.700000
v -0.450000 -0.060000 -0.700000
v -0.300000 0.000000 -0.700000
v -0.450000 0.060000 -0.700000
v -0.450000 0.025000 -0.700000
v -0.700000 0.025000 -0.700000
v -0.850000 -0.700000 -0.700000
v -0.150000 -0.700000 -0.700000
v -0.700000 -0.700000 0.025000
v -0.450000 -0.700000 0.025000
v -0.450000 -0.700000 0.060000
v -0.300000 -0.700000 0.000000
v -0.450000 -0.700000 -0.060000
v -0.450000 -0.700000 -0.025000
v -0.700000 -0.700000 -0.025000
v -0.850000 -0.500000 0.000000
v -1.000000 -0.495895 -0.063939
v -0.850000 -0.495895 -0.063939
v -1.000000 -0.483647 -0.126827
v -0.850000 -0.483647 -0.126827
v -1.000000 -0.463458 -0.187633
v -0.850000 -0.463458 -0.187633
v -1.000000 -0.435659 -0.245359
v -0.850000 -0.435659 -0.245359
v -1.000000 -0.400707 -0.299055
v -0.850000 -0.400707 -0.299055
v -1.000000 -0.359175 -0.347841
v -0.850000 -0.359175 -0.347841
v -1.000000 -0.311745 -0.390916
v -0.850000 -0.311745 -0.390916
v -1.000000 -0.259196 -0.427571
v -0.850000 -0.259196 -0.427571
v -1.000000 -0.202392 -0.457206
v -0.850000 -0.202392 -0.457206
v -1.000000 -0.142264 -0.479334
v -0.850000 -0.142264 -0.479334
v -1.000000 -0.079800 -0.493591
v -0.850000 -0.079800 -0.493591
v -1.000000 -0.016026 -0.499743
v -0.850000 -0.016026 -0.499743
v -1.000000 0.048012 -0.497690
v -0.850000 0.048012 -0.497690
v -1.000000 0.111260 -0.487464
v -0.850000 0.111260 -0.487464
v -1.000000 0.172683 -0.469234
v -0.850000 0.172683 -0.469234
v -1.000000 0.231269 -0.443300
v -0.850000 0.231269 -0.443300
v -1.000000 0.286058 -0.410086
v -0.850000 0.286058 -0.410086
v -1.000000 0.336150 -0.370139
v -0.850000 0.336150 -0.370139
v -1.000000 0.380723 -0.324114
v -0.850000 0.380723 -0.324114
v -1.000000 0.419044 -0.272767
v -0.850000 0.419044 -0.272767
v -1.000000 0.450484 -0.216942
v -0.850000 0.450484 -0.216942
v -1.000000 0.474528 -0.157554
v -0.850000 0.474528 -0.157554
v -1.000000 0.490780 -0.095579
v -0.850000 0.490780 -0.095579
v -1.000000 0.498973 -0.032035
v -0.850000 0.498973 -0.032035
v -1.000000 0.498973 0.032035
v -0.850000 0.498973 0.032035
v -1.000000 0.490780 0.095579
v -0.850000 0.490780 0.095579
v -1.000000 0.474528 0.157554
v -0.850000 0.474528 0.157554
v -1.000000 0.450484 0.216942
v -0.850000 0.450484 0.216942
v -1.000000 0.419044 0.272767
v -0.850000 0.419044 0.272767
v -1.000000 0.380723 0.324114
v -0.850000 0.380723 0.324114
v -1.000000 0.336150 0.370139
v -0.850000 0.336150 0.370139
v -1.000000 0.286058 0.410086
v -0.850000 0.286058 0.410086
v -1.000000 0.231269 0.443300
v -0.850000 0.231269 0.443300
v -1.000000 0.172683 0.469234
v -0.850000 0.172683 0.469234
v -1.000000 0.111260 0.487464
v -0.850000 0.111260 0.487464
v -1.000000 0.048012 0.497690
v -0.850000 0.048012 0.497690
v -1.000000 -0.016026 0.499743
v -0.850000 -0.016026 0.499743
v -1.000000 -0.079800 0.493591
v -0.850000 -0.079800 0.493591
v -1.000000 -0.142264 0.479334
v -0.850000 -0.142264 0.479334
v -1.000000 -0.202392 0.457206
v -0.850000 -0.202392 0.457206
v -1.000000 -0.259196 0.427571
v -0.850000 -0.259196 0.427571
v -1.000000 -0.311745 0.390916
v -0.850000 -0.311745 0.390916
v -1.000000 -0.359175 0.347841
v -0.850000 -0.359175 0.347841
v -1.000000 -0.400707 0.299055
v -0.850000 -0.400707 0.299055
v -1.000000 -0.435659 0.245359
v -0.850000 -0.435659 0.245359
v -1.000000 -0.463458 0.187633
v -0.850000 -0.463458 0.187633
v -1.000000 -0.483647 0.126827
v -0.850000 -0.483647 0.126827
v -1.000000 -0.495895 0.063939
v -0.850000 -0.495895 0.063939
v -1.000000 -0.500000 0.000000
v -1.000000 0.000000 0.000000
v -0.850000 -0.500000 0.000000
v -0.150000 -0.495895 0.063939
v -0.150000 -0.500000 0.000000
v -0.150000 -0.495895 -0.063939
v -0.150000 -0.483647 0.126827
v -0.150000 -0.463458 0.187633
v -0.150000 -0.435659 0.245359
v -0.150000 -0.400707 0.299055
v -0.150000 -0.359175 0.347841
v -0.150000 -0.311745 0.390916
v -0.150000 0.231269 0.443300
v -0.150000 0.172683 0.469234
v -0.150000 0.111260 0.487464
v -0.150000 0.286058 0.410086
v -0.150000 0.336150 0.370139
v -0.150000 0.380723 0.324114
v -0.150000 0.336150 -0.370139
v -0.150000 0.286058 -0.410086
v -0.150000 0.490780 -0.095579
v -0.150000 0.474528 -0.157554
v -0.150000 0.450484 -0.216942
v -0.150000 0.231269 -0.443300
v -0.150000 0.172683 -0.469234
v -0.150000 0.111260 -0.487464
v -0.150000 0.048012 -0.497690
v -0.150000 -0.016026 -0.499743
v -0.150000 -0.079800 -0.493591
v -0.150000 -0.142264 -0.479334
v -0.150000 -0.259196 0.427571
v -0.150000 -0.202392 0.457206
v -0.150000 -0.142264 0.479334
v -0.150000 0.419044 -0.272767
v -0.150000 0.380723 -0.324114
v -0.150000 0.419044 0.272767
v -0.150000 0.450484 0.216942
v -0.150000 0.474528 0.157554
v -0.150000 -0.202392 -0.457206
v -0.150000 -0.259196 -0.427571
v -0.150000 -0.311745 -0.390916
v -0.150000 -0.079800 0.493591
v -0.150000 -0.016026 0.499743
v -0.150000 0.048012 0.497690
v -0.150000 0.490780 0.095579
v -0.150000 0.498973 0.032035
v -0.150000 0.498973 -0.032035
v -0.150000 -0.359175 -0.347841
v -0.150000 -0.400707 -0.299055
v -0.150000 -0.435659 -0.245359
v -0.150000 -0.463458 -0.187633
v -0.150000 -0.483647 -0.126827
v 0.000000 -0.500000 0.000000
v 0.000000 -0.495895 -0.063939
v 0.000000 0.000000 0.000000
v 0.000000 -0.463458 0.187633
v 0.000000 -0.483647 0.126827
v 0.000000 -0.495895 0.063939
v 0.000000 -0.359175 0.347841
v 0.000000 -0.400707 0.299055
v 0.000000 -0.435659 0.245359
v 0.000000 -0.202392 0.457206
v 0.000000 -0.259196 0.427571
v 0.000000 -0.311745 0.390916
v 0.000000 -0.016026 0.499743
v 0.000000 -0.079800 0.493591
v 0.000000 -0.142264 0.479334
v 0.000000 0.172683 0.469234
v 0.000000 0.111260 0.487464
v 0.000000 0.048012 0.497690
v 0.000000 0.336150 0.370139
v 0.000000 0.286058 0.410086
v 0.000000 0.231269 0.443300
v 0.000000 0.450484 0.216942
v 0.000000 0.419044 0.272767
v 0.000000 0.380723 0.324114
v 0.000000 0.498973 0.032035
v 0.000000 0.490780 0.095579
v 0.000000 0.474528 0.157554
v 0.000000 0.474528 -0.157554
v 0.000000 0.490780 -0.095579
v 0.000000 0.498973 -0.032035
v 0.000000 0.380723 -0.324114
v 0.000000 0.419044 -0.272767
v 0.000000 0.450484 -0.216942
v 0.000000 0.231269 -0.443300
v 0.000000 0.286058 -0.410086
v 0.000000 0.336150 -0.370139
v 0.000000 0.048012 -0.497690
v 0.000000 0.111260 -0.487464
v 0.000000 0.172683 -0.469234
v 0.000000 -0.142264 -0.479334
v 0.000000 -0.079800 -0.493591
v 0.000000 -0.016026 -0.499743
v 0.000000 -0.311745 -0.390916
v 0.000000 -0.259196 -0.427571
v 0.000000 -0.202392 -0.457206
v 0.000000 -0.435659 -0.245359
v 0.000000 -0.400707 -0.299055
v 0.000000 -0.359175 -0.347841
v 0.000000 -0.483647 -0.126827
v 0.000000 -0.463458 -0.187633
v 0.000000 -0.500000 0.000000
v -0.441962 -0.730000 -0.016962
v -0.691962 -0.730000 -0.016962
v -0.441962 -0.730000 -0.048127
v -0.321644 -0.730000 0.000000
v -0.300000 -0.700000 0.000000
v -0.441962 -0.730000 0.048127
v -0.321644 -0.730000 0.000000
v -0.300000 -0.700000 0.000000
v -0.441962 -0.730000 0.016962
v -0.691962 -0.730000 0.016962
v -0.321644 -0.730000 0.000000
v -0.441962 0.016962 -0.730000
v -0.691962 0.016962 -0.730000
v -0.441962 0.048127 -0.730000
v -0.321644 0.000000 -0.730000
v -0.300000 0.000000 -0.700000
v -0.441962 -0.048127 -0.730000
v -0.321644 0.000000 -0.730000
v -0.300000 0.000000 -0.700000
v -0.441962 -0.016962 -0.730000
v -0.691962 -0.016962 -0.730000
v -0.321644 0.000000 -0.730000
v -0.441962 0.730000 0.016962
v -0.691962 0.730000 0.016962
v -0.441962 0.730000 0.048127
v -0.321644 0.730000 -0.000000
v -0.300000 0.700000 -0.000000
v -0.441962 0.730000 -0.048127
v -0.321644 0.730000 -0.000000
v -0.300000 0.700000 -0.000000
v -0.441962 0.730000 -0.016962
v -0.691962 0.730000 -0.016962
v -0.321644 0.730000 -0.000000
v -0.441962 -0.016962 0.730000
v -0.691962 -0.016962 0.730000
v -0.441962 -0.048127 0.730000
v -0.321644 -0.000000 0.730000
v -0.300000 -0.000000 0.700000
v -0.441962 0.048127 0.730000
v -0.321644 -0.000000 0.730000
v -0.300000 -0.000000 0.700000
v -0.441962 0.016962 0.730000
v -0.691962 0.016962 0.730000
v -0.321644 -0.000000 0.730000
vn 0.0000 0.0000 1.0000
vn 0.0000 1.0000 0.0000
vn 0.0000 0.0000 -1.0000
vn 0.0000 -1.0000 0.0000
vn 0.0000 -0.9979 -0.0641
vn 0.0000 -0.9816 -0.1912
vn 0.0000 -0.9491 -0.3151
vn 0.0000 -0.9010 -0.4339
vn 0.0000 -0.8381 -0.5455
vn 0.0000 -0.7614 -0.6482
vn 0.0000 -0.6723 -0.7403
vn 0.0000 -0.5721 -0.8202
vn 0.0000 -0.4625 -0.8866
vn 0.0000 -0.3454 -0.9385
vn 0.0000 -0.2225 -0.9749
vn 0.0000 -0.0960 -0.9954
vn 0.0000 0.0321 -0.9995
vn 0.0000 0.1596 -0.9872
vn 0.0000 0.2845 -0.9587
vn 0.0000 0.4048 -0.9144
vn 0.0000 0.5184 -0.8551
vn 0.0000 0.6235 -0.7818
vn 0.0000 0.7183 -0.6957
vn 0.0000 0.8014 -0.5981
vn 0.0000 0.8713 -0.4907
vn 0.0000 0.9269 -0.3753
vn 0.0000 0.9673 -0.2537
vn 0.0000 0.9918 -0.1279
vn 0.0000 0.9918 0.1279
vn 0.0000 0.9673 0.2537
vn 0.0000 0.9269 0.3753
vn 0.0000 0.8713 0.4907
vn 0.0000 0.8014 0.5981
vn 0.0000 0.7183 0.6957
vn 0.0000 0.6235 0.7818
vn 0.0000 0.5184 0.8551
vn 0.0000 0.4048 0.9144
vn 0.0000 0.2845 0.9587
vn 0.0000 0.1596 0.9872
vn 0.0000 0.0321 0.9995
vn 0.0000 -0.0960 0.9954
vn 0.0000 -0.2225 0.9749
vn 0.0000 -0.3454 0.9385
vn 0.0000 -0.4625 0.8866
vn 0.0000 -0.5721 0.8202
vn 0.0000 -0.6723 0.7403
vn 0.0000 -0.7614 0.6482
vn 0.0000 -0.8381 0.5455
vn 0.0000 -0.9010 0.4339
vn 0.0000 -0.9491 0.3151
vn 0.0000 -0.9816 0.1912
vn 0.0000 -0.9979 0.0641
vn -1.0000 0.0000 0.0000
vn 1.0000 0.0000 0.0000
vn 0.0000 -0.2588 -0.9659
vn -0.9659 -0.2588 0.0000
vn 0.3587 -0.2588 -0.8968
vn 0.3587 -0.2588 0.8968
vn 0.0000 -0.2588 0.9659
vn 0.0000 0.9659 -0.2588
vn -0.9659 0.0000 -0.2588
vn 0.3587 0.8968 -0.2588
vn 0.3587 -0.8968 -0.2588
vn 0.0000 -0.9659 -0.2588
vn 0.0000 0.2588 0.9659
vn -0.9659 0.2588 0.0000
vn 0.3587 0.2588 0.8968
vn 0.3587 0.2588 -0.8968
vn 0.0000 0.2588 -0.9659
vn 0.0000 -0.9659 0.2588
vn -0.9659 0.0000 0.2588
vn 0.3587 -0.8968 0.2588
vn 0.3587 0.8968 0.2588
vn 0.0000 0.9659 0.2588
usemtl None
s off
f 1//1 2//1 3//1
f 4//1 5//1 6//1
f 6//1 5//1 7//1
f 7//1 8//1 6//1
f 6//1 8//1 1//1
f 6//1 1//1 9//1
f 9//1 1//1 3//1
f 9//1 3//1 10//1
f 10//1 3//1 4//1
f 10//1 4//1 11//1
f 11//1 4//1 6//1
f 12//2 13//2 14//2
f 15//2 16//2 9//2
f 9//2 16//2 17//2
f 17//2 18//2 9//2
f 9//2 18//2 12//2
f 9//2 12//2 19//2
f 19//2 12//2 14//2
f 19//2 14//2 20//2
f 20//2 14//2 15//2
f 20//2 15//2 10//2
f 10//2 15//2 9//2
f 21//3 22//3 23//3
f 24//3 25//3 19//3
f 19//3 25//3 26//3
f 26//3 27//3 19//3
f 19//3 27//3 21//3
f 19//3 21//3 28//3
f 28//3 21//3 23//3
f 28//3 23//3 29//3
f 29//3 23//3 24//3
f 29//3 24//3 20//3
f 20//3 24//3 19//3
f 30//4 31//4 32//4
f 33//4 34//4 28//4
f 28//4 34//4 35//4
f 35//4 36//4 28//4
f 28//4 36//4 30//4
f 28//4 30//4 6//4
f 6//4 30//4 32//4
f 6//4 32//4 11//4
f 11//4 32//4 33//4
f 11//4 33//4 29//4
f 29//4 33//4 28//4
f 37//5 38//5 39//5
f 39//6 38//6 40//6
f 39//6 40//6 41//6
f 41//7 40//7 42//7
f 41//7 42//7 43//7
f 43//8 42//8 44//8
f 43//8 44//8 45//8
f 45//9 44//9 46//9
f 45//9 46//9 47//9
f 47//10 46//10 48//10
f 47//10 48//10 49//10
f 49//11 48//11 50//11
f 49//11 50//11 51//11
f 51//12 50//12 52//12
f 51//12 52//12 53//12
f 53//13 52//13 54//13
f 53//13 54//13 55//13
f 55//14 54//14 56//14
f 55//14 56//14 57//14
f 57//15 56//15 58//15
f 57//15 58//15 59//15
f 59//16 58//16 60//16
f 59//16 60//16 61//16
f 61//17 60//17 62//17
f 61//17 62//17 63//17
f 63//18 62//18 64//18
f 63//18 64//18 65//18
f 65//19 64//19 66//19
f 65//19 66//19 67//19
f 67//20 66//20 68//20
f 67//20 68//20 69//20
f 69//21 68//21 70//21
f 69//21 70//21 71//21
f 71//22 70//22 72//22
f 71//22 72//22 73//22
f 73//23 72//23 74//23
f 73//23 74//23 75//23
f 75//24 74//24 76//24
f 75//24 76//24 77//24
f 77//25 76//25 78//25
f 77//25 78//25 79//25
f 79//26 78//26 80//26
f 79//26 80//26 81//26
f 81//27 80//27 82//27
f 81//27 82//27 83//27
f 83//28 82//28 84//28
f 83//28 84//28 85//28
f 85//2 84//2 86//2
f 85//2 86//2 87//2
f 87//29 86//29 88//29
f 87//29 88//29 89//29
f 89//30 88//30 90//30
f 89//30 90//30 91//30
f 91//31 90//31 92//31
f 91//31 92//31 93//31
f 93//32 92//32 94//32
f 93//32 94//32 95//32
f 95//33 94//33 96//33
f 95//33 96//33 97//33
f 97//34 96//34 98//34
f 97//34 98//34 99//34
f 99//35 98//35 100//35
f 99//35 100//35 101//35
f 101//36 100//36 102//36
f 101//36 102//36 103//36
f 103//37 102//37 104//37
f 103//37 104//37 105//37
f 105//38 104//38 106//38
f 105//38 106//38 107//38
f 107//39 106//39 108//39
f 107//39 108//39 109//39
f 109//40 108//40 110//40
f 109//40 110//40 111//40
f 111//41 110//41 112//41
f 111//41 112//41 113//41
f 113//42 112//42 114//42
f 113//42 114//42 115//42
f 115//43 114//43 116//43
f 115//43 116//43 117//43
f 117//44 116//44 118//44
f 117//44 118//44 119//44
f 119//45 118//45 120//45
f 119//45 120//45 121//45
f 121//46 120//46 122//46
f 121//46 122//46 123//46
f 123//47 122//47 124//47
f 123//47 124//47 125//47
f 125//48 124//48 126//48
f 125//48 126//48 127//48
f 127//49 126//49 128//49
f 127//49 128//49 129//49
f 129//50 128//50 130//50
f 129//50 130//50 131//50
f 131//51 130//51 132//51
f 131//51 132//51 133//51
f 133//52 132//52 134//52
f 133//52 134//52 37//52
f 37//5 134//5 38//5
f 134//53 132//53 135//53
f 42//53 40//53 135//53
f 135//53 40//53 38//53
f 135//53 38//53 134//53
f 48//53 46//53 135//53
f 135//53 46//53 44//53
f 135//53 44//53 42//53
f 54//53 52//53 135//53
f 135//53 52//53 50//53
f 135//53 50//53 48//53
f 60//53 58//53 135//53
f 135//53 58//53 56//53
f 135//53 56//53 54//53
f 66//53 64//53 135//53
f 135//53 64//53 62//53
f 135//53 62//53 60//53
f 72//53 70//53 135//53
f 135//53 70//53 68//53
f 135//53 68//53 66//53
f 78//53 76//53 135//53
f 135//53 76//53 74//53
f 135//53 74//53 72//53
f 84//53 82//53 135//53
f 135//53 82//53 80//53
f 135//53 80//53 78//53
f 90//53 88//53 135//53
f 135//53 88//53 86//53
f 135//53 86//53 84//53
f 96//53 94//53 135//53
f 135//53 94//53 92//53
f 135//53 92//53 90//53
f 102//53 100//53 135//53
f 135//53 100//53 98//53
f 135//53 98//53 96//53
f 108//53 106//53 135//53
f 135//53 106//53 104//53
f 135//53 104//53 102//53
f 114//53 112//53 135//53
f 135//53 112//53 110//53
f 135//53 110//53 108//53
f 120//53 118//53 135//53
f 135//53 118//53 116//53
f 135//53 116//53 114//53
f 126//53 124//53 135//53
f 135//53 124//53 122//53
f 135//53 122//53 120//53
f 132//53 130//53 135//53
f 135//53 130//53 128//53
f 135//53 128//53 126//53
f 28//53 39//53 41//53
f 39//53 28//53 136//53
f 136//53 28//53 6//53
f 136//53 6//53 133//53
f 65//53 67//53 19//53
f 19//53 67//53 69//53
f 19//53 69//53 71//53
f 91//53 93//53 9//53
f 9//53 99//53 101//53
f 101//53 103//53 9//53
f 9//53 103//53 105//53
f 9//53 105//53 107//53
f 115//53 117//53 6//53
f 6//53 117//53 119//53
f 6//53 119//53 121//53
f 41//53 43//53 28//53
f 28//53 43//53 45//53
f 28//53 45//53 47//53
f 57//53 28//53 55//53
f 55//53 28//53 53//53
f 71//53 73//53 19//53
f 19//53 73//53 75//53
f 19//53 75//53 77//53
f 77//53 79//53 19//53
f 19//53 79//53 81//53
f 19//53 81//53 83//53
f 83//53 85//53 19//53
f 19//53 85//53 87//53
f 19//53 87//53 9//53
f 9//53 87//53 89//53
f 9//53 89//53 91//53
f 93//53 95//53 9//53
f 9//53 95//53 97//53
f 9//53 97//53 99//53
f 47//53 49//53 28//53
f 28//53 49//53 51//53
f 28//53 51//53 53//53
f 57//53 59//53 28//53
f 28//53 59//53 61//53
f 28//53 61//53 19//53
f 19//53 61//53 63//53
f 19//53 63//53 65//53
f 107//53 109//53 9//53
f 9//53 109//53 111//53
f 9//53 111//53 6//53
f 6//53 111//53 113//53
f 6//53 113//53 115//53
f 121//53 123//53 6//53
f 6//53 123//53 125//53
f 6//53 125//53 127//53
f 127//53 129//53 6//53
f 6//53 129//53 131//53
f 6//53 131//53 133//53
f 137//54 11//54 138//54
f 138//54 11//54 29//54
f 138//54 29//54 139//54
f 137//54 140//54 11//54
f 11//54 140//54 141//54
f 11//54 141//54 142//54
f 142//54 143//54 11//54
f 11//54 143//54 144//54
f 11//54 144//54 145//54
f 146//54 10//54 147//54
f 147//54 10//54 148//54
f 146//54 149//54 10//54
f 10//54 149//54 150//54
f 10//54 150//54 151//54
f 20//54 152//54 153//54
f 154//54 155//54 20//54
f 20//54 155//54 156//54
f 153//54 157//54 20//54
f 20//54 157//54 158//54
f 20//54 158//54 159//54
f 159//54 160//54 20//54
f 20//54 160//54 161//54
f 20//54 161//54 29//54
f 29//54 161//54 162//54
f 29//54 162//54 163//54
f 145//54 164//54 11//54
f 11//54 164//54 165//54
f 11//54 165//54 166//54
f 156//54 167//54 20//54
f 20//54 167//54 168//54
f 20//54 168//54 152//54
f 151//54 169//54 10//54
f 10//54 169//54 170//54
f 10//54 170//54 171//54
f 163//54 172//54 29//54
f 29//54 172//54 173//54
f 29//54 173//54 174//54
f 166//54 175//54 11//54
f 11//54 175//54 176//54
f 11//54 176//54 10//54
f 10//54 176//54 177//54
f 10//54 177//54 148//54
f 171//54 178//54 10//54
f 10//54 178//54 179//54
f 10//54 179//54 20//54
f 20//54 179//54 180//54
f 20//54 180//54 154//54
f 174//54 181//54 29//54
f 29//54 181//54 182//54
f 29//54 182//54 183//54
f 183//54 184//54 29//54
f 29//54 184//54 185//54
f 29//54 185//54 139//54
f 186//54 187//54 188//54
f 189//54 190//54 188//54
f 188//54 190//54 191//54
f 188//54 191//54 186//54
f 192//54 193//54 188//54
f 188//54 193//54 194//54
f 188//54 194//54 189//54
f 195//54 196//54 188//54
f 188//54 196//54 197//54
f 188//54 197//54 192//54
f 198//54 199//54 188//54
f 188//54 199//54 200//54
f 188//54 200//54 195//54
f 201//54 202//54 188//54
f 188//54 202//54 203//54
f 188//54 203//54 198//54
f 204//54 205//54 188//54
f 188//54 205//54 206//54
f 188//54 206//54 201//54
f 207//54 208//54 188//54
f 188//54 208//54 209//54
f 188//54 209//54 204//54
f 210//54 211//54 188//54
f 188//54 211//54 212//54
f 188//54 212//54 207//54
f 213//54 214//54 188//54
f 188//54 214//54 215//54
f 188//54 215//54 210//54
f 216//54 217//54 188//54
f 188//54 217//54 218//54
f 188//54 218//54 213//54
f 219//54 220//54 188//54
f 188//54 220//54 221//54
f 188//54 221//54 216//54
f 222//54 223//54 188//54
f 188//54 223//54 224//54
f 188//54 224//54 219//54
f 225//54 226//54 188//54
f 188//54 226//54 227//54
f 188//54 227//54 222//54
f 228//54 229//54 188//54
f 188//54 229//54 230//54
f 188//54 230//54 225//54
f 231//54 232//54 188//54
f 188//54 232//54 233//54
f 188//54 233//54 228//54
f 187//54 234//54 188//54
f 188//54 234//54 235//54
f 188//54 235//54 231//54
f 236//5 139//5 187//5
f 187//6 139//6 185//6
f 187//6 185//6 234//6
f 234//7 185//7 184//7
f 234//7 184//7 235//7
f 235//8 184//8 183//8
f 235//8 183//8 231//8
f 231//9 183//9 182//9
f 231//9 182//9 232//9
f 232//10 182//10 181//10
f 232//10 181//10 233//10
f 233//11 181//11 174//11
f 233//11 174//11 228//11
f 228//12 174//12 173//12
f 228//12 173//12 229//12
f 229//13 173//13 172//13
f 229//13 172//13 230//13
f 230//14 172//14 163//14
f 230//14 163//14 225//14
f 225//15 163//15 162//15
f 225//15 162//15 226//15
f 226//16 162//16 161//16
f 226//16 161//16 227//16
f 227//17 161//17 160//17
f 227//17 160//17 222//17
f 222//18 160//18 159//18
f 222//18 159//18 223//18
f 223//19 159//19 158//19
f 223//19 158//19 224//19
f 224//20 158//20 157//20
f 224//20 157//20 219//20
f 219//21 157//21 153//21
f 219//21 153//21 220//21
f 220//22 153//22 152//22
f 220//22 152//22 221//22
f 221//23 152//23 168//23
f 221//23 168//23 216//23
f 216//24 168//24 167//24
f 216//24 167//24 217//24
f 217//25 167//25 156//25
f 217//25 156//25 218//25
f 218//26 156//26 155//26
f 218//26 155//26 213//26
f 213//27 155//27 154//27
f 213//27 154//27 214//27
f 214//28 154//28 180//28
f 214//28 180//28 215//28
f 215//2 180//2 179//2
f 215//2 179//2 210//2
f 210//29 179//29 178//29
f 210//29 178//29 211//29
f 211//30 178//30 171//30
f 211//30 171//30 212//30
f 212//31 171//31 170//31
f 212//31 170//31 207//31
f 207//32 170//32 169//32
f 207//32 169//32 208//32
f 208//33 169//33 151//33
f 208//33 151//33 209//33
f 209//34 151//34 150//34
f 209//34 150//34 204//34
f 204//35 150//35 149//35
f 204//35 149//35 205//35
f 205//36 149//36 146//36
f 205//36 146//36 206//36
f 206//37 146//37 147//37
f 206//37 147//37 201//37
f 201//38 147//38 148//38
f 201//38 148//38 202//38
f 202//39 148//39 177//39
f 202//39 177//39 203//39
f 203//40 177//40 176//40
f 203//40 176//40 198//40
f 198//41 176//41 175//41
f 198//41 175//41 199//41
f 199//42 175//42 166//42
f 199//42 166//42 200//42
f 200//43 166//43 165//43
f 200//43 165//43 195//43
f 195//44 165//44 164//44
f 195//44 164//44 196//44
f 196//45 164//45 145//45
f 196//45 145//45 197//45
f 197//46 145//46 144//46
f 197//46 144//46 192//46
f 192//47 144//47 143//47
f 192//47 143//47 193//47
f 193//48 143//48 142//48
f 193//48 142//48 194//48
f 194//49 142//49 141//49
f 194//49 141//49 189//49
f 189//50 141//50 140//50
f 189//50 140//50 190//50
f 190//51 140//51 137//51
f 190//51 137//51 191//51
f 191//52 137//52 138//52
f 191//52 138//52 236//52
f 236//5 138//5 139//5
f 237//55 238//55 35//55
f 35//55 238//55 36//55
f 239//56 237//56 34//56
f 34//56 237//56 35//56
f 240//57 239//57 241//57
f 241//57 239//57 34//57
f 242//58 243//58 32//58
f 32//58 243//58 244//58
f 245//56 242//56 31//56
f 31//56 242//56 32//56
f 246//59 245//59 30//59
f 30//59 245//59 31//59
f 238//56 246//56 36//56
f 36//56 246//56 30//56
f 247//4 242//4 245//4
f 246//4 238//4 245//4
f 245//4 238//4 237//4
f 245//4 237//4 247//4
f 247//4 237//4 239//4
f 248//60 249//60 26//60
f 26//60 249//60 27//60
f 250//61 248//61 25//61
f 25//61 248//61 26//61
f 251//62 250//62 252//62
f 252//62 250//62 25//62
f 253//63 254//63 23//63
f 23//63 254//63 255//63
f 256//61 253//61 22//61
f 22//61 253//61 23//61
f 257//64 256//64 21//64
f 21//64 256//64 22//64
f 249//61 257//61 27//61
f 27//61 257//61 21//61
f 258//3 253//3 256//3
f 257//3 249//3 256//3
f 256//3 249//3 248//3
f 256//3 248//3 258//3
f 258//3 248//3 250//3
f 259//65 260//65 17//65
f 17//65 260//65 18//65
f 261//66 259//66 16//66
f 16//66 259//66 17//66
f 262//67 261//67 263//67
f 263//67 261//67 16//67
f 264//68 265//68 14//68
f 14//68 265//68 266//68
f 267//66 264//66 13//66
f 13//66 264//66 14//66
f 268//69 267//69 12//69
f 12//69 267//69 13//69
f 260//66 268//66 18//66
f 18//66 268//66 12//66
f 269//2 264//2 267//2
f 268//2 260//2 267//2
f 267//2 260//2 259//2
f 267//2 259//2 269//2
f 269//2 259//2 261//2
f 270//70 271//70 7//70
f 7//70 271//70 8//70
f 272//71 270//71 5//71
f 5//71 270//71 7//71
f 273//72 272//72 274//72
f 274//72 272//72 5//72
f 275//73 276//73 3//73
f 3//73 276//73 277//73
f 278//71 275//71 2//71
f 2//71 275//71 3//71
f 279//74 278//74 1//74
f 1//74 278//74 2//74
f 271//71 279//71 8//71
f 8//71 279//71 1//71
f 280//1 275//1 278//1
f 279//1 271//1 278//1
f 278//1 271//1 270//1
f 278//1 270//1 280//1
f 280//1 270//1 272//1
