# Blender v2.91.2 OBJ File: ''
# www.blender.org
mtllib prescribedPosition2.mtl
o Cone
v 0.000009 0.130991 -0.065544
v -0.056735 0.130991 -0.032783
v -0.056735 0.130991 0.032740
v 0.000009 0.130991 0.065501
v 0.056753 0.130991 0.032740
v 0.056753 0.130991 -0.032783
v 0.000009 -0.000053 -0.000021
vt 0.250000 0.490000
vt 0.250000 0.250000
vt 0.457846 0.370000
vt 0.457846 0.130000
vt 0.250000 0.010000
vt 0.042154 0.130000
vt 0.750000 0.490000
vt 0.957846 0.370000
vt 0.957846 0.130000
vt 0.750000 0.010000
vt 0.542154 0.130000
vt 0.542154 0.370000
vt 0.042154 0.370000
vn -0.4588 -0.3974 -0.7947
vn -0.9177 -0.3974 0.0000
vn -0.4588 -0.3974 0.7947
vn 0.4588 -0.3974 0.7947
vn -0.0000 1.0000 -0.0000
vn 0.9177 -0.3974 0.0000
vn 0.4588 -0.3974 -0.7947
usemtl None
s off
f 1/1/1 7/2/1 2/3/1
f 2/3/2 7/2/2 3/4/2
f 3/4/3 7/2/3 4/5/3
f 4/5/4 7/2/4 5/6/4
f 1/7/5 2/8/5 3/9/5 4/10/5 5/11/5 6/12/5
f 5/6/6 7/2/6 6/13/6
f 6/13/7 7/2/7 1/1/7
