<?xml version="1.0" encoding="UTF-8" standalone="no"?>
<svg
   xmlns:dc="http://purl.org/dc/elements/1.1/"
   xmlns:cc="http://creativecommons.org/ns#"
   xmlns:rdf="http://www.w3.org/1999/02/22-rdf-syntax-ns#"
   xmlns:svg="http://www.w3.org/2000/svg"
   xmlns="http://www.w3.org/2000/svg"
   xmlns:sodipodi="http://sodipodi.sourceforge.net/DTD/sodipodi-0.dtd"
   xmlns:inkscape="http://www.inkscape.org/namespaces/inkscape"
   width="210mm"
   height="297mm"
   viewBox="0 0 210 297"
   version="1.1"
   id="svg8"
   sodipodi:docname="icons.svg"
   inkscape:version="1.0.1 (3bc2e813f5, 2020-09-07)">
  <defs
     id="defs2" />
  <sodipodi:namedview
     id="base"
     pagecolor="#ffffff"
     bordercolor="#666666"
     borderopacity="1.0"
     inkscape:pageopacity="0.0"
     inkscape:pageshadow="2"
     inkscape:zoom="1.28"
     inkscape:cx="447.61473"
     inkscape:cy="320.89038"
     inkscape:document-units="mm"
     inkscape:current-layer="layer2"
     inkscape:document-rotation="0"
     showgrid="false"
     inkscape:snap-bbox="true"
     inkscape:bbox-paths="true"
     inkscape:snap-bbox-edge-midpoints="true"
     inkscape:snap-bbox-midpoints="true"
     inkscape:bbox-nodes="true"
     showguides="true"
     inkscape:guide-bbox="true"
     inkscape:window-width="1920"
     inkscape:window-height="1015"
     inkscape:window-x="0"
     inkscape:window-y="0"
     inkscape:window-maximized="1" />
  <metadata
     id="metadata5">
    <rdf:RDF>
      <cc:Work
         rdf:about="">
        <dc:format>image/svg+xml</dc:format>
        <dc:type
           rdf:resource="http://purl.org/dc/dcmitype/StillImage" />
      </cc:Work>
    </rdf:RDF>
  </metadata>
  <g
     inkscape:label="grid"
     inkscape:groupmode="layer"
     id="layer1"
     sodipodi:insensitive="true"
     style="display:none">
    <rect
       style="fill:none;stroke:#000000;stroke-width:0.63843;stroke-linecap:round;stroke-linejoin:miter;stroke-miterlimit:4;stroke-dasharray:none"
       id="rect833"
       width="25.485968"
       height="25.485968"
       x="12.956014"
       y="9.0530939" />
    <rect
       style="fill:none;stroke:#000000;stroke-width:0.638429;stroke-linecap:round;stroke-linejoin:miter;stroke-miterlimit:4;stroke-dasharray:none"
       id="rect833-6"
       width="25.485968"
       height="25.485968"
       x="63.927948"
       y="9.0530939" />
    <rect
       style="fill:none;stroke:#000000;stroke-width:0.638429;stroke-linecap:round;stroke-linejoin:miter;stroke-miterlimit:4;stroke-dasharray:none"
       id="rect833-7"
       width="25.485968"
       height="25.485968"
       x="114.89989"
       y="9.0530939" />
    <rect
       style="fill:none;stroke:#000000;stroke-width:0.638429;stroke-linecap:round;stroke-linejoin:miter;stroke-miterlimit:4;stroke-dasharray:none"
       id="rect833-5"
       width="25.485968"
       height="25.485968"
       x="165.87184"
       y="9.0530939" />
    <rect
       style="fill:none;stroke:#000000;stroke-width:0.638429;stroke-linecap:round;stroke-linejoin:miter;stroke-miterlimit:4;stroke-dasharray:none"
       id="rect833-2"
       width="25.485968"
       height="25.485968"
       x="12.956009"
       y="60.025032" />
    <rect
       style="fill:none;stroke:#000000;stroke-width:0.638429;stroke-linecap:round;stroke-linejoin:miter;stroke-miterlimit:4;stroke-dasharray:none"
       id="rect833-6-9"
       width="25.485968"
       height="25.485968"
       x="63.927948"
       y="60.025032" />
    <rect
       style="fill:none;stroke:#000000;stroke-width:0.638429;stroke-linecap:round;stroke-linejoin:miter;stroke-miterlimit:4;stroke-dasharray:none"
       id="rect833-7-1"
       width="25.485968"
       height="25.485968"
       x="114.89989"
       y="60.025032" />
    <rect
       style="fill:none;stroke:#000000;stroke-width:0.638429;stroke-linecap:round;stroke-linejoin:miter;stroke-miterlimit:4;stroke-dasharray:none"
       id="rect833-5-2"
       width="25.485968"
       height="25.485968"
       x="165.87184"
       y="60.025032" />
    <rect
       style="fill:none;stroke:#000000;stroke-width:0.638429;stroke-linecap:round;stroke-linejoin:miter;stroke-miterlimit:4;stroke-dasharray:none"
       id="rect833-79"
       width="25.485968"
       height="25.485968"
       x="12.956003"
       y="110.99697" />
    <rect
       style="fill:none;stroke:#000000;stroke-width:0.638429;stroke-linecap:round;stroke-linejoin:miter;stroke-miterlimit:4;stroke-dasharray:none"
       id="rect833-6-2"
       width="25.485968"
       height="25.485968"
       x="63.92794"
       y="110.99697" />
    <rect
       style="fill:none;stroke:#000000;stroke-width:0.638429;stroke-linecap:round;stroke-linejoin:miter;stroke-miterlimit:4;stroke-dasharray:none"
       id="rect833-7-02"
       width="25.485968"
       height="25.485968"
       x="114.89989"
       y="110.99697" />
    <rect
       style="fill:none;stroke:#000000;stroke-width:0.638429;stroke-linecap:round;stroke-linejoin:miter;stroke-miterlimit:4;stroke-dasharray:none"
       id="rect833-5-3"
       width="25.485968"
       height="25.485968"
       x="165.87183"
       y="110.99697" />
    <rect
       style="fill:none;stroke:#000000;stroke-width:0.638429;stroke-linecap:round;stroke-linejoin:miter;stroke-miterlimit:4;stroke-dasharray:none"
       id="rect833-2-7"
       width="25.485968"
       height="25.485968"
       x="12.955999"
       y="161.9689" />
    <rect
       style="fill:none;stroke:#000000;stroke-width:0.638429;stroke-linecap:round;stroke-linejoin:miter;stroke-miterlimit:4;stroke-dasharray:none"
       id="rect833-6-9-5"
       width="25.485968"
       height="25.485968"
       x="63.92794"
       y="161.9689" />
    <rect
       style="fill:none;stroke:#000000;stroke-width:0.638429;stroke-linecap:round;stroke-linejoin:miter;stroke-miterlimit:4;stroke-dasharray:none"
       id="rect833-7-1-9"
       width="25.485968"
       height="25.485968"
       x="114.89989"
       y="161.9689" />
    <rect
       style="fill:none;stroke:#000000;stroke-width:0.638429;stroke-linecap:round;stroke-linejoin:miter;stroke-miterlimit:4;stroke-dasharray:none"
       id="rect833-5-2-2"
       width="25.485968"
       height="25.485968"
       x="165.87183"
       y="161.9689" />
  </g>
  <g
     inkscape:groupmode="layer"
     id="layer2"
     inkscape:label="icosn">
    <g
       id="g2861"
       inkscape:export-xdpi="513.81891"
       inkscape:export-ydpi="513.81891">
      <g
         id="g2733">
        <path
           id="rect979"
           style="fill:#1a1a1a;stroke:none;stroke-width:3.42023;stroke-linecap:round;stroke-linejoin:miter;stroke-miterlimit:4;stroke-dasharray:none"
           d="M 55.732422 34.478516 L 55.732422 130.13867 L 139.99609 130.13867 L 139.99609 61.457031 L 113.66797 34.478516 L 55.732422 34.478516 z M 93.230469 65.064453 L 101.0293 65.064453 L 101.0293 78.478516 L 114.44531 78.478516 L 114.44531 86.279297 L 101.0293 86.279297 L 101.0293 99.693359 L 93.230469 99.693359 L 93.230469 86.279297 L 79.816406 86.279297 L 79.816406 78.478516 L 93.230469 78.478516 L 93.230469 65.064453 z "
           transform="scale(0.26458333)" />
      </g>
    </g>
    <g
       id="g2870"
       inkscape:export-xdpi="510.27664"
       inkscape:export-ydpi="510.27664">
      <g
         id="g2740">
        <path
           id="rect1046"
           style="fill:#1a1a1a;stroke:none;stroke-width:2.6948;stroke-linecap:round;stroke-linejoin:miter;stroke-miterlimit:4;stroke-dasharray:none"
           d="M 434.26758 34.216797 L 434.26758 130.54102 L 530.5918 130.54102 L 530.5918 50.654297 L 516.67773 34.216797 L 434.26758 34.216797 z M 449.91016 48.449219 L 514.93164 48.449219 L 514.93164 72.298828 L 449.91016 72.298828 L 449.91016 48.449219 z M 454.73047 85.013672 L 510.12891 85.013672 C 512.79393 85.013672 514.93945 87.159172 514.93945 89.824219 L 514.93945 115.1543 C 514.93945 117.81934 512.79393 119.96484 510.12891 119.96484 L 454.73047 119.96484 C 452.06541 119.96484 449.91992 117.81934 449.91992 115.1543 L 449.91992 89.824219 C 449.91992 87.159172 452.06541 85.013672 454.73047 85.013672 z "
           transform="scale(0.26458333)" />
        <rect
           style="fill:#1a1a1a;stroke:none;stroke-width:0.198392;stroke-linecap:round;stroke-linejoin:miter;stroke-miterlimit:4;stroke-dasharray:none"
           id="rect1050-1"
           width="2.6983759"
           height="4.2029734"
           x="131.33865"
           y="13.872244"
           ry="0" />
      </g>
    </g>
    <g
       id="g2877"
       inkscape:export-xdpi="510.27664"
       inkscape:export-ydpi="510.27664">
      <g
         id="g2746">
        <path
           id="rect1046-8"
           style="fill:#1a1a1a;stroke:none;stroke-width:2.6948;stroke-linecap:round;stroke-linejoin:miter;stroke-miterlimit:4;stroke-dasharray:none"
           d="M 626.91797 34.216797 L 626.91797 130.54102 L 723.24219 130.54102 L 723.24219 50.654297 L 709.32812 34.216797 L 626.91797 34.216797 z M 642.56055 48.449219 L 707.58203 48.449219 L 707.58203 72.298828 L 642.56055 72.298828 L 642.56055 48.449219 z M 647.37891 85.013672 L 702.7793 85.013672 C 705.44432 85.013672 707.58984 87.159172 707.58984 89.824219 L 707.58984 115.1543 C 707.58984 117.81934 705.44432 119.96484 702.7793 119.96484 L 647.37891 119.96484 C 644.71385 119.96484 642.56836 117.81934 642.56836 115.1543 L 642.56836 89.824219 C 642.56836 87.159172 644.71385 85.013672 647.37891 85.013672 z "
           transform="scale(0.26458333)" />
        <rect
           style="fill:#1a1a1a;stroke:none;stroke-width:0.198392;stroke-linecap:round;stroke-linejoin:miter;stroke-miterlimit:4;stroke-dasharray:none"
           id="rect1050-1-5"
           width="2.6983759"
           height="4.2029734"
           x="182.31061"
           y="13.872244"
           ry="0" />
        <rect
           style="fill:#1a1a1a;stroke:none;stroke-width:0.297274;stroke-linecap:round;stroke-linejoin:miter;stroke-miterlimit:4;stroke-dasharray:none"
           id="rect982-1"
           width="1.5693784"
           height="6.9684143"
           x="177.83012"
           y="23.632677" />
        <rect
           style="fill:#1a1a1a;stroke:none;stroke-width:0.297274;stroke-linecap:round;stroke-linejoin:miter;stroke-miterlimit:4;stroke-dasharray:none"
           id="rect982-2-0"
           width="1.5693784"
           height="6.9684143"
           x="-27.901571"
           y="175.1306"
           transform="rotate(-90)" />
      </g>
    </g>
    <g
       id="g2893"
       inkscape:export-xdpi="503.96155"
       inkscape:export-ydpi="503.96155">
      <path
         id="rect1235"
         style="fill:#1a1a1a;stroke:none;stroke-width:2.72854;stroke-linecap:round;stroke-linejoin:miter;stroke-miterlimit:4;stroke-dasharray:none"
         d="M 241.01367 226.26367 L 241.01367 323.79492 L 338.54492 323.79492 L 338.54492 226.26367 L 241.01367 226.26367 z M 250.86523 236.10938 L 328.70117 236.10938 L 328.70117 313.94531 L 250.86523 313.94531 L 250.86523 237.17188 L 250.86523 236.10938 z "
         transform="scale(0.26458333)" />
      <path
         id="rect1295-2"
         style="fill:#1a1a1a;stroke:none;stroke-width:1.39971;stroke-linecap:round;stroke-linejoin:miter;stroke-miterlimit:4;stroke-dasharray:none"
         d="M 308.62695 268.01953 L 290.5332 284.75195 L 320.16992 312.88672 L 327.99805 312.88672 L 327.99805 292.06641 L 308.62695 268.01953 z "
         transform="scale(0.26458333)" />
      <path
         style="color:#000000;font-style:normal;font-variant:normal;font-weight:normal;font-stretch:normal;font-size:medium;line-height:normal;font-family:sans-serif;font-variant-ligatures:normal;font-variant-position:normal;font-variant-caps:normal;font-variant-numeric:normal;font-variant-alternates:normal;font-variant-east-asian:normal;font-feature-settings:normal;font-variation-settings:normal;text-indent:0;text-align:start;text-decoration:none;text-decoration-line:none;text-decoration-style:solid;text-decoration-color:#000000;letter-spacing:normal;word-spacing:normal;text-transform:none;writing-mode:lr-tb;direction:ltr;text-orientation:mixed;dominant-baseline:auto;baseline-shift:baseline;text-anchor:start;white-space:normal;shape-padding:0;shape-margin:0;inline-size:0;clip-rule:nonzero;display:inline;overflow:visible;visibility:visible;isolation:auto;mix-blend-mode:normal;color-interpolation:sRGB;color-interpolation-filters:linearRGB;solid-color:#000000;solid-opacity:1;vector-effect:none;fill:#1a1a1a;fill-opacity:1;fill-rule:nonzero;stroke:none;stroke-width:0.35593;stroke-linecap:round;stroke-linejoin:miter;stroke-miterlimit:4;stroke-dasharray:none;stroke-dashoffset:0;stroke-opacity:1;color-rendering:auto;image-rendering:auto;shape-rendering:auto;text-rendering:auto;enable-background:accumulate;stop-color:#000000"
         d="M 72.798119,72.228561 83.916421,82.784646 H 66.654297 v -5.294582 z"
         id="path2790" />
      <circle
         style="fill:#1a1a1a;stroke:none;stroke-width:0.4748;stroke-linecap:round;stroke-linejoin:miter;stroke-miterlimit:4;stroke-dasharray:none"
         id="path1313"
         cx="70.948425"
         cy="66.44529"
         r="2.7808859" />
    </g>
    <g
       id="g2898"
       inkscape:export-xdpi="1991.2111"
       inkscape:export-ydpi="1991.2111">
      <path
         id="rect1353-6"
         style="fill:none;stroke:#1a1a1a;stroke-width:2.04567;stroke-linecap:round;stroke-linejoin:miter;stroke-miterlimit:4;stroke-dasharray:none"
         d="m 23.048943,62.202059 c -1.120859,0 -2.023235,0.902376 -2.023235,2.023235 v 11.038943 h -4.507854 c -1.120859,0 -2.023235,0.902376 -2.023235,2.023235 v 4.661719 c 0,1.120859 0.902376,2.023182 2.023235,2.023182 h 6.531089 2.484671 2.177047 c 1.120859,0 2.023183,-0.902323 2.023183,-2.023182 V 70.910195 h 4.507906 c 1.120859,0 2.023184,-0.902376 2.023184,-2.023235 v -4.661666 c 0,-1.120859 -0.902325,-2.023235 -2.023184,-2.023235 h -6.531089 z" />
      <rect
         style="fill:#1a1a1a;stroke:none;stroke-width:0.0826749;stroke-linecap:round;stroke-linejoin:miter;stroke-miterlimit:4;stroke-dasharray:none"
         id="rect1421"
         width="4.3540788"
         height="13.328721"
         x="34.087902"
         y="60.025032" />
      <rect
         style="fill:#1a1a1a;stroke:none;stroke-width:0.082675;stroke-linecap:round;stroke-linejoin:miter;stroke-miterlimit:4;stroke-dasharray:none"
         id="rect1421-3"
         width="4.3540788"
         height="13.328721"
         x="12.317582"
         y="72.820709" />
    </g>
    <g
       id="g2887"
       inkscape:export-xdpi="497.80084"
       inkscape:export-ydpi="497.80084">
      <path
         id="rect1512"
         style="fill:#1a1a1a;stroke:none;stroke-width:21.0502;stroke-linecap:round;stroke-linejoin:miter;stroke-miterlimit:4;stroke-dasharray:none"
         d="M 459.82422 256.28516 L 459.82422 314.99805 C 459.82422 320.20552 464.01714 324.39844 469.22461 324.39844 L 495.63477 324.39844 C 500.84224 324.39844 505.03516 320.20552 505.03516 314.99805 L 505.03516 256.28516 L 459.82422 256.28516 z M 482.42969 276.7168 A 13.624617 13.624617 0 0 1 496.05469 290.3418 A 13.624617 13.624617 0 0 1 482.42969 303.9668 A 13.624617 13.624617 0 0 1 468.80469 290.3418 A 13.624617 13.624617 0 0 1 482.42969 276.7168 z "
         transform="scale(0.26458333)" />
      <path
         id="rect1512-7"
         style="fill:#1a1a1a;stroke:none;stroke-width:11.066;stroke-linecap:round;stroke-linejoin:miter;stroke-miterlimit:4;stroke-dasharray:none"
         d="M 465.79883 225.66016 L 465.79883 251.24414 L 499.06055 251.24414 L 499.06055 225.66016 L 465.79883 225.66016 z M 474.64258 233.86328 L 478.53711 233.86328 L 478.53711 243.04102 L 474.64258 243.04102 L 474.64258 233.86328 z M 486.32227 233.86328 L 490.2168 233.86328 L 490.2168 243.04102 L 486.32227 243.04102 L 486.32227 233.86328 z "
         transform="scale(0.26458333)" />
    </g>
    <g
       id="g2883"
       inkscape:export-xdpi="497.80084"
       inkscape:export-ydpi="497.80084">
      <path
         id="rect1512-3"
         style="fill:#1a1a1a;stroke:none;stroke-width:21.0502;stroke-linecap:round;stroke-linejoin:miter;stroke-miterlimit:4;stroke-dasharray:none"
         d="M 652.47461 256.28516 L 652.47461 314.99805 C 652.47461 320.20552 656.66558 324.39844 661.87305 324.39844 L 688.28516 324.39844 C 693.49263 324.39844 697.68555 320.20552 697.68555 314.99805 L 697.68555 256.28516 L 652.47461 256.28516 z M 675.08008 276.7168 A 13.624617 13.624617 0 0 1 688.70508 290.3418 A 13.624617 13.624617 0 0 1 675.08008 303.9668 A 13.624617 13.624617 0 0 1 661.45508 290.3418 A 13.624617 13.624617 0 0 1 675.08008 276.7168 z "
         transform="scale(0.26458333)" />
      <path
         id="rect1512-7-1"
         style="fill:#1a1a1a;stroke:none;stroke-width:11.066;stroke-linecap:round;stroke-linejoin:miter;stroke-miterlimit:4;stroke-dasharray:none"
         d="M 658.44727 225.66016 L 658.44727 251.24414 L 691.71094 251.24414 L 691.71094 225.66016 L 658.44727 225.66016 z M 667.29297 233.86328 L 671.18555 233.86328 L 671.18555 243.04102 L 667.29297 243.04102 L 667.29297 233.86328 z M 678.97266 233.86328 L 682.86523 233.86328 L 682.86523 243.04102 L 678.97266 243.04102 L 678.97266 233.86328 z "
         transform="scale(0.26458333)" />
      <rect
         style="fill:#1a1a1a;stroke:none;stroke-width:0.156121;stroke-linecap:round;stroke-linejoin:miter;stroke-miterlimit:4;stroke-dasharray:none"
         id="rect982-1-8-0"
         width="0.82419658"
         height="3.6596296"
         x="178.42918"
         y="74.98967" />
      <rect
         style="fill:#1a1a1a;stroke:none;stroke-width:0.156121;stroke-linecap:round;stroke-linejoin:miter;stroke-miterlimit:4;stroke-dasharray:none"
         id="rect982-2-0-8-6"
         width="0.82419658"
         height="3.6596296"
         x="-77.231583"
         y="177.01146"
         transform="rotate(-90)" />
    </g>
    <g
       id="g2865"
       inkscape:export-xdpi="513.81891"
       inkscape:export-ydpi="513.81891">
      <g
         id="g2736">
        <path
           id="rect979-9"
           style="fill:#1a1a1a;stroke:none;stroke-width:3.42023;stroke-linecap:round;stroke-linejoin:miter;stroke-miterlimit:4;stroke-dasharray:none"
           d="M 247.64844 34.548828 L 247.64844 130.20898 L 331.91211 130.20898 L 331.91211 61.527344 L 305.58398 34.548828 L 247.64844 34.548828 z M 285.14648 57.408203 L 292.94531 57.408203 L 292.94531 69.261719 L 285.14648 69.261719 L 285.14648 57.408203 z M 274.07617 61.919922 L 282.45898 70.300781 L 276.94336 75.816406 L 268.5625 67.433594 L 274.07617 61.919922 z M 303.96289 62.044922 L 309.47852 67.558594 L 301.0957 75.941406 L 295.58203 70.425781 L 303.96289 62.044922 z M 263.92383 78.453125 L 275.77734 78.453125 L 275.77734 86.251953 L 263.92383 86.251953 L 263.92383 78.453125 z M 302.13672 78.628906 L 313.99023 78.628906 L 313.99023 86.427734 L 302.13672 86.427734 L 302.13672 78.628906 z M 276.81836 88.939453 L 282.33203 94.455078 L 273.95117 102.83594 L 268.43555 97.322266 L 276.81836 88.939453 z M 300.9707 89.064453 L 309.35352 97.447266 L 303.83789 102.96094 L 295.45703 94.580078 L 300.9707 89.064453 z M 284.96875 95.619141 L 292.76758 95.619141 L 292.76758 107.47266 L 284.96875 107.47266 L 284.96875 95.619141 z "
           transform="scale(0.26458333)" />
      </g>
    </g>
    <g
       id="g2910"
       inkscape:export-xdpi="497.80301"
       inkscape:export-ydpi="497.80301">
      <path
         id="rect1353-6-5"
         style="fill:none;stroke:#1a1a1a;stroke-width:2.04567;stroke-linecap:round;stroke-linejoin:miter;stroke-miterlimit:4;stroke-dasharray:none"
         d="m 74.340093,112.85479 c -1.120859,0 -2.023235,0.90237 -2.023235,2.02323 v 11.03894 h -4.507854 c -1.120859,0 -2.023235,0.90238 -2.023235,2.02324 v 4.66172 c 0,1.12086 0.902376,2.02318 2.023235,2.02318 h 6.531089 2.484671 2.177047 c 1.120859,0 2.023183,-0.90232 2.023183,-2.02318 v -11.039 H 85.5329 c 1.120859,0 2.023184,-0.90237 2.023184,-2.02323 v -4.66167 c 0,-1.12086 -0.902325,-2.02323 -2.023184,-2.02323 h -6.531089 z" />
      <rect
         style="fill:#1a1a1a;stroke:none;stroke-width:0.0826749;stroke-linecap:round;stroke-linejoin:miter;stroke-miterlimit:4;stroke-dasharray:none"
         id="rect1421-98"
         width="4.3540788"
         height="13.328721"
         x="85.379051"
         y="110.67776" />
      <rect
         style="fill:#1a1a1a;stroke:none;stroke-width:0.082675;stroke-linecap:round;stroke-linejoin:miter;stroke-miterlimit:4;stroke-dasharray:none"
         id="rect1421-3-4"
         width="4.3540788"
         height="13.328721"
         x="63.60873"
         y="123.47343" />
    </g>
    <g
       id="g2915"
       inkscape:export-xdpi="497.80301"
       inkscape:export-ydpi="497.80301">
      <path
         id="rect1353-6-0"
         style="fill:#000000;stroke:none;stroke-width:7.73167;stroke-linecap:round;stroke-linejoin:miter;stroke-miterlimit:4;stroke-dasharray:none"
         d="M 473.62109 426.53711 C 469.38477 426.53711 465.97266 429.94923 465.97266 434.18555 L 465.97266 475.90625 L 448.93555 475.90625 C 444.69923 475.90625 441.28906 479.31641 441.28906 483.55273 L 441.28906 501.17188 C 441.28906 505.4082 444.69923 508.81836 448.93555 508.81836 L 473.62109 508.81836 L 483.01172 508.81836 L 491.24023 508.81836 C 495.47656 508.81836 498.88672 505.4082 498.88672 501.17188 L 498.88672 459.45117 L 515.92383 459.45117 C 520.16015 459.45117 523.57031 456.03906 523.57031 451.80273 L 523.57031 434.18555 C 523.57031 429.94923 520.16015 426.53711 515.92383 426.53711 L 491.24023 426.53711 L 473.62109 426.53711 z M 482.42773 441.29688 L 484.96094 441.29688 L 487.16016 441.29688 L 487.16016 445.69727 L 484.96094 445.69727 L 484.62891 445.69727 L 484.62891 447.57227 L 480.22852 447.57227 L 480.22852 445.37109 L 480.22852 443.49609 A 2.2017949 2.2017949 0 0 1 482.42773 441.29688 z M 495.9668 441.29688 L 498.16602 441.29688 L 502.57422 441.29688 L 504.77344 441.29688 L 504.77344 445.69727 L 502.57422 445.69727 L 498.16602 445.69727 L 495.9668 445.69727 L 495.9668 441.29688 z M 480.22852 456.37891 L 484.62891 456.37891 L 484.62891 458.57812 L 484.62891 462.98438 L 484.62891 465.18359 L 480.22852 465.18359 L 480.22852 462.98438 L 480.22852 458.57812 L 480.22852 456.37891 z M 480.22852 473.99023 L 484.62891 473.99023 L 484.62891 476.19141 L 484.62891 480.59766 L 484.62891 482.79688 L 480.22852 482.79688 L 480.22852 480.59766 L 480.22852 476.19141 L 480.22852 473.99023 z M 456.26758 489.65625 L 458.4668 489.65625 L 462.87305 489.65625 L 465.07422 489.65625 L 465.07422 494.0625 L 462.87305 494.0625 L 458.4668 494.0625 L 456.26758 494.0625 L 456.26758 489.65625 z M 473.88086 489.65625 L 476.08008 489.65625 L 480.48633 489.65625 L 482.6875 489.65625 L 482.6875 494.0625 L 480.48633 494.0625 L 476.08008 494.0625 L 473.88086 494.0625 L 473.88086 489.65625 z "
         transform="scale(0.26458333)" />
      <rect
         style="fill:#000000;stroke:none;stroke-width:0.0826749;stroke-linecap:round;stroke-linejoin:miter;stroke-miterlimit:4;stroke-dasharray:none"
         id="rect1421-9"
         width="4.3540788"
         height="13.328721"
         x="136.35098"
         y="110.67776" />
      <rect
         style="fill:#000000;stroke:none;stroke-width:0.082675;stroke-linecap:round;stroke-linejoin:miter;stroke-miterlimit:4;stroke-dasharray:none"
         id="rect1421-3-6"
         width="4.3540788"
         height="13.328721"
         x="114.58067"
         y="123.47343" />
    </g>
    <g
       id="g2905"
       inkscape:export-xdpi="684.86877"
       inkscape:export-ydpi="684.86877">
      <g
         id="g2433"
         transform="translate(189.06005,18.836033)">
        <g
           id="g2421">
          <path
             style="fill:none;stroke:#000000;stroke-width:1;stroke-linecap:round;stroke-linejoin:round;stroke-miterlimit:4;stroke-dasharray:none;stroke-dashoffset:0;stroke-opacity:1"
             d="m -154.91627,98.506091 h -8.70812 v 12.795669 h -8.70811"
             id="path2075-3"
             sodipodi:nodetypes="cccc" />
          <path
             style="fill:none;stroke:#000000;stroke-width:1.05332;stroke-linecap:round;stroke-linejoin:miter;stroke-miterlimit:4;stroke-dasharray:none;stroke-opacity:1"
             d="m -172.33251,108.73187 c 0,5.18907 0,5.13977 0,5.13977"
             id="path2389" />
          <path
             style="fill:none;stroke:#000000;stroke-width:1.05332;stroke-linecap:round;stroke-linejoin:miter;stroke-miterlimit:4;stroke-dasharray:none;stroke-opacity:1"
             d="m -154.38961,95.936204 c 0,5.189066 0,5.139766 0,5.139766"
             id="path2389-4" />
        </g>
      </g>
    </g>
  </g>
</svg>
