<?xml version="1.0" encoding="iso-8859-1"?>
<!-- Generator: Adobe Illustrator 19.0.0, SVG Export Plug-In . SVG Version: 6.00 Build 0)  -->
<svg version="1.1" id="Layer_1" xmlns="http://www.w3.org/2000/svg" xmlns:xlink="http://www.w3.org/1999/xlink" x="0px" y="0px"
	 viewBox="0 0 512 512" style="enable-background:new 0 0 512 512;" xml:space="preserve">
<path style="fill:#314E55;" d="M436.092,99.64c-1.184-0.553-2.465-0.833-3.772-0.833H198.776c-4.965,0-8.982,4.018-8.982,8.982
	v80.842c0,4.965,4.018,8.982,8.982,8.982H432.32c1.307,0,2.588-0.281,3.772-0.833c42.096-19.474,63.447-35.825,63.447-48.57
	S478.189,119.114,436.092,99.64z"/>
<path style="fill:#F28544;" d="M430.329,179.649h-222.57v-62.877h222.57c23.825,11.193,46.325,25.167,50.79,31.439
	C476.654,154.483,454.154,168.447,430.329,179.649z"/>
<path style="fill:#314E55;" d="M387.408,215.579H78.899c-1.316,0-2.623,0.289-3.816,0.851
	c-41.553,19.491-62.623,35.825-62.623,48.553c0,12.728,21.07,29.061,62.623,48.553c1.193,0.561,2.5,0.851,3.816,0.851h308.509
	c4.965,0,8.982-4.018,8.982-8.982v-80.842C396.391,219.597,392.373,215.579,387.408,215.579z"/>
<path style="fill:#73C9C9;" d="M378.426,296.421H80.917c-23.544-11.219-45.746-25.202-50.07-31.439
	c4.325-6.237,26.526-20.211,50.07-31.439h297.509L378.426,296.421L378.426,296.421z"/>
<path style="fill:#314E55;" d="M306.566,341.333c0-4.965-4.018-8.982-8.982-8.982h-62.877c-4.965,0-8.982,4.018-8.982,8.982v152.702
	c0,4.965,4.018,8.982,8.982,8.982h62.877c4.965,0,8.982-4.018,8.982-8.982V341.333z"/>
<rect x="243.691" y="350.316" style="fill:#C59981;" width="44.912" height="134.737"/>
<path style="fill:#314E55;" d="M234.706,80.842h62.877c4.965,0,8.982-4.018,8.982-8.982V8.982c0-4.965-4.018-8.982-8.982-8.982
	h-62.877c-4.965,0-8.982,4.018-8.982,8.982V71.86C225.724,76.824,229.741,80.842,234.706,80.842z"/>
<rect x="243.691" y="17.965" style="fill:#C59981;" width="44.912" height="44.912"/>
<g>
	<path style="fill:#314E55;" d="M369.443,440.14c-34.667,0-62.877,28.211-62.877,62.877c0,4.965,4.018,8.982,8.982,8.982
		s8.982-4.018,8.982-8.982c0-24.763,20.149-44.912,44.912-44.912c4.965,0,8.982-4.018,8.982-8.982S374.408,440.14,369.443,440.14z"
		/>
	<path style="fill:#314E55;" d="M162.847,440.14c-4.965,0-8.982,4.018-8.982,8.982s4.018,8.982,8.982,8.982
		c24.763,0,44.912,20.149,44.912,44.912c0,4.965,4.018,8.982,8.982,8.982c4.965,0,8.982-4.018,8.982-8.982
		C225.724,468.351,197.513,440.14,162.847,440.14z"/>
</g>
<g>
</g>
<g>
</g>
<g>
</g>
<g>
</g>
<g>
</g>
<g>
</g>
<g>
</g>
<g>
</g>
<g>
</g>
<g>
</g>
<g>
</g>
<g>
</g>
<g>
</g>
<g>
</g>
<g>
</g>
</svg>
