# Blender v2.93.5 OBJ File: ''
# www.blender.org
mtllib compressor_suction_2.mtl
o compressor_suction_2
v 0.300000 0.025000 0.700000
v 0.550000 0.025000 0.700000
v 0.550000 0.060000 0.700000
v 0.700000 0.000000 0.700000
v 0.550000 -0.060000 0.700000
v 0.150000 -0.700000 0.700000
v 0.550000 -0.025000 0.700000
v 0.300000 -0.025000 0.700000
v 0.150000 0.700000 0.700000
v 0.850000 0.700000 0.700000
v 0.850000 -0.700000 0.700000
v 0.700000 -0.700000 -0.000000
v 0.550000 -0.700000 -0.060000
v 0.150000 -0.700000 -0.700000
v 0.550000 -0.700000 0.060000
v 0.850000 -0.700000 -0.700000
v 0.550000 -0.700000 0.025000
v 0.300000 -0.700000 0.025000
v 0.300000 -0.700000 -0.025000
v 0.550000 -0.700000 -0.025000
v 0.700000 -0.000000 -0.700000
v 0.550000 0.060000 -0.700000
v 0.150000 0.700000 -0.700000
v 0.550000 -0.060000 -0.700000
v 0.850000 0.700000 -0.700000
v 0.550000 -0.025000 -0.700000
v 0.300000 -0.025000 -0.700000
v 0.300000 0.025000 -0.700000
v 0.550000 0.025000 -0.700000
v 0.300000 0.700000 -0.025000
v 0.550000 0.700000 -0.025000
v 0.550000 0.700000 -0.060000
v 0.700000 0.700000 0.000000
v 0.550000 0.700000 0.060000
v 0.550000 0.700000 0.025000
v 0.300000 0.700000 0.025000
v 1.000000 -0.500000 -0.000000
v 1.000000 -0.498973 0.032035
v 0.850000 -0.498973 0.032035
v 1.000000 -0.490780 0.095579
v 0.850000 -0.490780 0.095579
v 1.000000 -0.474528 0.157554
v 0.850000 -0.474528 0.157554
v 1.000000 -0.450484 0.216942
v 0.850000 -0.450484 0.216942
v 1.000000 -0.419044 0.272767
v 0.850000 -0.419044 0.272767
v 1.000000 -0.380723 0.324114
v 0.850000 -0.380723 0.324114
v 1.000000 -0.336150 0.370139
v 0.850000 -0.336150 0.370139
v 1.000000 -0.286058 0.410086
v 0.850000 -0.286058 0.410086
v 1.000000 -0.231269 0.443300
v 0.850000 -0.231269 0.443300
v 1.000000 -0.172683 0.469234
v 0.850000 -0.172683 0.469234
v 1.000000 -0.111260 0.487464
v 0.850000 -0.111260 0.487464
v 1.000000 -0.048012 0.497690
v 0.850000 -0.048012 0.497690
v 1.000000 0.016026 0.499743
v 0.850000 0.016026 0.499743
v 1.000000 0.079800 0.493591
v 0.850000 0.079800 0.493591
v 1.000000 0.142264 0.479334
v 0.850000 0.142264 0.479334
v 1.000000 0.202392 0.457206
v 0.850000 0.202392 0.457206
v 1.000000 0.259196 0.427571
v 0.850000 0.259196 0.427571
v 1.000000 0.311745 0.390916
v 0.850000 0.311745 0.390916
v 1.000000 0.359175 0.347841
v 0.850000 0.359175 0.347841
v 1.000000 0.400707 0.299055
v 0.850000 0.400707 0.299055
v 1.000000 0.435659 0.245359
v 0.850000 0.435659 0.245359
v 1.000000 0.463458 0.187633
v 0.850000 0.463458 0.187633
v 1.000000 0.483647 0.126827
v 0.850000 0.483647 0.126827
v 1.000000 0.495895 0.063939
v 0.850000 0.495895 0.063939
v 1.000000 0.500000 0.000000
v 0.850000 0.500000 0.000000
v 1.000000 0.495895 -0.063939
v 0.850000 0.495895 -0.063939
v 1.000000 0.483647 -0.126827
v 0.850000 0.483647 -0.126827
v 1.000000 0.463458 -0.187633
v 0.850000 0.463458 -0.187633
v 1.000000 0.435659 -0.245359
v 0.850000 0.435659 -0.245359
v 1.000000 0.400707 -0.299055
v 0.850000 0.400707 -0.299055
v 1.000000 0.359175 -0.347841
v 0.850000 0.359175 -0.347841
v 1.000000 0.311745 -0.390916
v 0.850000 0.311745 -0.390916
v 1.000000 0.259196 -0.427571
v 0.850000 0.259196 -0.427571
v 1.000000 0.202392 -0.457206
v 0.850000 0.202392 -0.457206
v 1.000000 0.142264 -0.479334
v 0.850000 0.142264 -0.479334
v 1.000000 0.079800 -0.493591
v 0.850000 0.079800 -0.493591
v 1.000000 0.016026 -0.499743
v 0.850000 0.016026 -0.499743
v 1.000000 -0.048012 -0.497690
v 0.850000 -0.048012 -0.497690
v 1.000000 -0.111260 -0.487464
v 0.850000 -0.111260 -0.487464
v 1.000000 -0.172683 -0.469234
v 0.850000 -0.172683 -0.469234
v 1.000000 -0.231269 -0.443300
v 0.850000 -0.231269 -0.443300
v 1.000000 -0.286058 -0.410086
v 0.850000 -0.286058 -0.410086
v 1.000000 -0.336150 -0.370139
v 0.850000 -0.336150 -0.370139
v 1.000000 -0.380723 -0.324114
v 0.850000 -0.380723 -0.324114
v 1.000000 -0.419044 -0.272767
v 0.850000 -0.419044 -0.272767
v 1.000000 -0.450484 -0.216942
v 0.850000 -0.450484 -0.216942
v 1.000000 -0.474528 -0.157554
v 0.850000 -0.474528 -0.157554
v 1.000000 -0.490780 -0.095579
v 0.850000 -0.490780 -0.095579
v 1.000000 -0.498973 -0.032035
v 0.850000 -0.498973 -0.032035
v 1.000000 -0.500000 -0.000000
v 1.000000 0.000000 0.000000
v 0.850000 0.500000 0.000000
v 0.150000 0.495895 0.063939
v 0.150000 0.500000 0.000000
v 0.150000 0.495895 -0.063939
v 0.150000 0.483647 0.126827
v 0.150000 0.463458 0.187633
v 0.150000 0.435659 0.245359
v 0.150000 0.400707 0.299055
v 0.150000 0.359175 0.347841
v 0.150000 0.311745 0.390916
v 0.150000 -0.231269 0.443300
v 0.150000 -0.172683 0.469234
v 0.150000 -0.111260 0.487464
v 0.150000 -0.286058 0.410086
v 0.150000 -0.336150 0.370139
v 0.150000 -0.380723 0.324114
v 0.150000 -0.336150 -0.370139
v 0.150000 -0.286058 -0.410086
v 0.150000 -0.490780 -0.095579
v 0.150000 -0.474528 -0.157554
v 0.150000 -0.450484 -0.216942
v 0.150000 -0.231269 -0.443300
v 0.150000 -0.172683 -0.469234
v 0.150000 -0.111260 -0.487464
v 0.150000 -0.048012 -0.497690
v 0.150000 0.016026 -0.499743
v 0.150000 0.079800 -0.493591
v 0.150000 0.142264 -0.479334
v 0.150000 0.259196 0.427571
v 0.150000 0.202392 0.457206
v 0.150000 0.142264 0.479334
v 0.150000 -0.419044 -0.272767
v 0.150000 -0.380723 -0.324114
v 0.150000 -0.419044 0.272767
v 0.150000 -0.450484 0.216942
v 0.150000 -0.474528 0.157554
v 0.150000 0.202392 -0.457206
v 0.150000 0.259196 -0.427571
v 0.150000 0.311745 -0.390916
v 0.150000 0.079800 0.493591
v 0.150000 0.016026 0.499743
v 0.150000 -0.048012 0.497690
v 0.150000 -0.490780 0.095579
v 0.150000 -0.498973 0.032035
v 0.150000 -0.498973 -0.032035
v 0.150000 0.359175 -0.347841
v 0.150000 0.400707 -0.299055
v 0.150000 0.435659 -0.245359
v 0.150000 0.463458 -0.187633
v 0.150000 0.483647 -0.126827
v 0.000000 -0.500000 -0.000000
v 0.000000 -0.498973 0.032035
v 0.000000 0.000000 0.000000
v 0.000000 -0.498973 -0.032035
v 0.000000 -0.450484 -0.216942
v 0.000000 -0.474528 -0.157554
v 0.000000 -0.490780 -0.095579
v 0.000000 -0.336150 -0.370139
v 0.000000 -0.380723 -0.324114
v 0.000000 -0.419044 -0.272767
v 0.000000 -0.172683 -0.469234
v 0.000000 -0.231269 -0.443300
v 0.000000 -0.286058 -0.410086
v 0.000000 0.016026 -0.499743
v 0.000000 -0.048012 -0.497690
v 0.000000 -0.111260 -0.487464
v 0.000000 0.202392 -0.457206
v 0.000000 0.142264 -0.479334
v 0.000000 0.079800 -0.493591
v 0.000000 0.359175 -0.347841
v 0.000000 0.311745 -0.390916
v 0.000000 0.259196 -0.427571
v 0.000000 0.463458 -0.187633
v 0.000000 0.435659 -0.245359
v 0.000000 0.400707 -0.299055
v 0.000000 0.500000 0.000000
v 0.000000 0.495895 -0.063939
v 0.000000 0.483647 -0.126827
v 0.000000 0.463458 0.187633
v 0.000000 0.483647 0.126827
v 0.000000 0.495895 0.063939
v 0.000000 0.359175 0.347841
v 0.000000 0.400707 0.299055
v 0.000000 0.435659 0.245359
v 0.000000 0.202392 0.457206
v 0.000000 0.259196 0.427571
v 0.000000 0.311745 0.390916
v 0.000000 0.016026 0.499743
v 0.000000 0.079800 0.493591
v 0.000000 0.142264 0.479334
v 0.000000 -0.172683 0.469234
v 0.000000 -0.111260 0.487464
v 0.000000 -0.048012 0.497690
v 0.000000 -0.336150 0.370139
v 0.000000 -0.286058 0.410086
v 0.000000 -0.231269 0.443300
v 0.000000 -0.450484 0.216942
v 0.000000 -0.419044 0.272767
v 0.000000 -0.380723 0.324114
v 0.000000 -0.490780 0.095579
v 0.000000 -0.474528 0.157554
v 0.000000 -0.500000 -0.000000
v 0.558038 0.730000 -0.048127
v 0.678356 0.730000 0.000000
v 0.700000 0.700000 0.000000
v 0.558038 0.730000 -0.016962
v 0.308038 0.730000 -0.016962
v 0.308038 0.730000 0.016962
v 0.558038 0.730000 0.016962
v 0.558038 0.730000 0.048127
v 0.678356 0.730000 0.000000
v 0.700000 0.700000 0.000000
v 0.678356 0.730000 0.000000
v 0.558038 -0.048127 -0.730000
v 0.678356 -0.000000 -0.730000
v 0.700000 -0.000000 -0.700000
v 0.558038 -0.016962 -0.730000
v 0.308038 -0.016962 -0.730000
v 0.308038 0.016962 -0.730000
v 0.558038 0.016962 -0.730000
v 0.558038 0.048127 -0.730000
v 0.678356 -0.000000 -0.730000
v 0.700000 -0.000000 -0.700000
v 0.678356 -0.000000 -0.730000
v 0.558038 -0.730000 0.048127
v 0.678356 -0.730000 -0.000000
v 0.700000 -0.700000 -0.000000
v 0.558038 -0.730000 0.016962
v 0.308038 -0.730000 0.016962
v 0.308038 -0.730000 -0.016962
v 0.558038 -0.730000 -0.016962
v 0.558038 -0.730000 -0.048127
v 0.678356 -0.730000 -0.000000
v 0.700000 -0.700000 -0.000000
v 0.678356 -0.730000 -0.000000
v 0.558038 0.048127 0.730000
v 0.678356 0.000000 0.730000
v 0.700000 0.000000 0.700000
v 0.558038 0.016962 0.730000
v 0.308038 0.016962 0.730000
v 0.308038 -0.016962 0.730000
v 0.558038 -0.016962 0.730000
v 0.558038 -0.048127 0.730000
v 0.678356 0.000000 0.730000
v 0.700000 0.000000 0.700000
v 0.678356 0.000000 0.730000
vn 0.0000 0.0000 1.0000
vn 0.0000 -1.0000 -0.0000
vn 0.0000 0.0000 -1.0000
vn 0.0000 1.0000 0.0000
vn 0.0000 -0.9995 0.0321
vn 0.0000 -0.9918 0.1279
vn 0.0000 -0.9673 0.2537
vn 0.0000 -0.9269 0.3753
vn 0.0000 -0.8713 0.4907
vn 0.0000 -0.8014 0.5981
vn 0.0000 -0.7183 0.6957
vn 0.0000 -0.6235 0.7818
vn 0.0000 -0.5184 0.8551
vn 0.0000 -0.4048 0.9144
vn 0.0000 -0.2845 0.9587
vn 0.0000 -0.1596 0.9872
vn 0.0000 -0.0321 0.9995
vn 0.0000 0.0960 0.9954
vn 0.0000 0.2225 0.9749
vn 0.0000 0.3454 0.9385
vn 0.0000 0.4625 0.8866
vn 0.0000 0.5721 0.8202
vn 0.0000 0.6723 0.7403
vn 0.0000 0.7614 0.6482
vn 0.0000 0.8381 0.5455
vn 0.0000 0.9010 0.4339
vn 0.0000 0.9491 0.3151
vn 0.0000 0.9816 0.1912
vn 0.0000 0.9979 0.0641
vn 0.0000 0.9979 -0.0641
vn 0.0000 0.9816 -0.1912
vn 0.0000 0.9491 -0.3151
vn 0.0000 0.9010 -0.4339
vn 0.0000 0.8381 -0.5455
vn 0.0000 0.7614 -0.6482
vn 0.0000 0.6723 -0.7403
vn 0.0000 0.5721 -0.8202
vn 0.0000 0.4625 -0.8866
vn 0.0000 0.3454 -0.9385
vn 0.0000 0.2225 -0.9749
vn 0.0000 0.0960 -0.9954
vn 0.0000 -0.0321 -0.9995
vn 0.0000 -0.1596 -0.9872
vn 0.0000 -0.2845 -0.9587
vn 0.0000 -0.4048 -0.9144
vn 0.0000 -0.5184 -0.8551
vn 0.0000 -0.6235 -0.7818
vn 0.0000 -0.7183 -0.6957
vn 0.0000 -0.8014 -0.5981
vn 0.0000 -0.8713 -0.4907
vn 0.0000 -0.9269 -0.3753
vn 0.0000 -0.9673 -0.2537
vn 0.0000 -0.9918 -0.1279
vn 0.0000 -0.9995 -0.0321
vn -0.0068 -1.0000 0.0000
vn 1.0000 0.0000 0.0000
vn -1.0000 -0.0000 0.0000
vn 0.0068 -1.0000 0.0000
vn 0.3587 0.2588 -0.8968
vn -0.9659 0.2588 0.0000
vn 0.0000 0.2588 -0.9659
vn 0.0000 0.2588 0.9659
vn 0.3587 0.2588 0.8968
vn 0.3587 -0.8968 -0.2588
vn -0.9659 0.0000 -0.2588
vn 0.0000 -0.9659 -0.2588
vn 0.0000 0.9659 -0.2588
vn 0.3587 0.8968 -0.2588
vn 0.3587 -0.2588 0.8968
vn -0.9659 -0.2588 0.0000
vn 0.0000 -0.2588 0.9659
vn 0.0000 -0.2588 -0.9659
vn 0.3587 -0.2588 -0.8968
vn 0.3587 0.8968 0.2588
vn -0.9659 0.0000 0.2588
vn 0.0000 0.9659 0.2588
vn 0.0000 -0.9659 0.2588
vn 0.3587 -0.8968 0.2588
usemtl None
s off
f 1//1 2//1 3//1
f 4//1 5//1 6//1
f 6//1 5//1 7//1
f 7//1 8//1 6//1
f 6//1 8//1 1//1
f 6//1 1//1 9//1
f 9//1 1//1 3//1
f 9//1 3//1 10//1
f 10//1 3//1 4//1
f 10//1 4//1 11//1
f 11//1 4//1 6//1
f 12//2 13//2 14//2
f 6//2 15//2 11//2
f 11//2 15//2 12//2
f 11//2 12//2 16//2
f 16//2 12//2 14//2
f 17//2 15//2 18//2
f 18//2 15//2 6//2
f 18//2 6//2 19//2
f 19//2 6//2 14//2
f 19//2 14//2 20//2
f 20//2 14//2 13//2
f 21//3 22//3 23//3
f 14//3 24//3 16//3
f 16//3 24//3 21//3
f 16//3 21//3 25//3
f 25//3 21//3 23//3
f 26//3 24//3 27//3
f 27//3 24//3 14//3
f 27//3 14//3 28//3
f 28//3 14//3 23//3
f 28//3 23//3 29//3
f 29//3 23//3 22//3
f 30//4 31//4 32//4
f 33//4 34//4 9//4
f 9//4 34//4 35//4
f 35//4 36//4 9//4
f 9//4 36//4 30//4
f 9//4 30//4 23//4
f 23//4 30//4 32//4
f 23//4 32//4 25//4
f 25//4 32//4 33//4
f 25//4 33//4 10//4
f 10//4 33//4 9//4
f 37//5 38//5 39//5
f 39//6 38//6 40//6
f 39//6 40//6 41//6
f 41//7 40//7 42//7
f 41//7 42//7 43//7
f 43//8 42//8 44//8
f 43//8 44//8 45//8
f 45//9 44//9 46//9
f 45//9 46//9 47//9
f 47//10 46//10 48//10
f 47//10 48//10 49//10
f 49//11 48//11 50//11
f 49//11 50//11 51//11
f 51//12 50//12 52//12
f 51//12 52//12 53//12
f 53//13 52//13 54//13
f 53//13 54//13 55//13
f 55//14 54//14 56//14
f 55//14 56//14 57//14
f 57//15 56//15 58//15
f 57//15 58//15 59//15
f 59//16 58//16 60//16
f 59//16 60//16 61//16
f 61//17 60//17 62//17
f 61//17 62//17 63//17
f 63//18 62//18 64//18
f 63//18 64//18 65//18
f 65//19 64//19 66//19
f 65//19 66//19 67//19
f 67//20 66//20 68//20
f 67//20 68//20 69//20
f 69//21 68//21 70//21
f 69//21 70//21 71//21
f 71//22 70//22 72//22
f 71//22 72//22 73//22
f 73//23 72//23 74//23
f 73//23 74//23 75//23
f 75//24 74//24 76//24
f 75//24 76//24 77//24
f 77//25 76//25 78//25
f 77//25 78//25 79//25
f 79//26 78//26 80//26
f 79//26 80//26 81//26
f 81//27 80//27 82//27
f 81//27 82//27 83//27
f 83//28 82//28 84//28
f 83//28 84//28 85//28
f 85//29 84//29 86//29
f 85//29 86//29 87//29
f 87//30 86//30 88//30
f 87//30 88//30 89//30
f 89//31 88//31 90//31
f 89//31 90//31 91//31
f 91//32 90//32 92//32
f 91//32 92//32 93//32
f 93//33 92//33 94//33
f 93//33 94//33 95//33
f 95//34 94//34 96//34
f 95//34 96//34 97//34
f 97//35 96//35 98//35
f 97//35 98//35 99//35
f 99//36 98//36 100//36
f 99//36 100//36 101//36
f 101//37 100//37 102//37
f 101//37 102//37 103//37
f 103//38 102//38 104//38
f 103//38 104//38 105//38
f 105//39 104//39 106//39
f 105//39 106//39 107//39
f 107//40 106//40 108//40
f 107//40 108//40 109//40
f 109//41 108//41 110//41
f 109//41 110//41 111//41
f 111//42 110//42 112//42
f 111//42 112//42 113//42
f 113//43 112//43 114//43
f 113//43 114//43 115//43
f 115//44 114//44 116//44
f 115//44 116//44 117//44
f 117//45 116//45 118//45
f 117//45 118//45 119//45
f 119//46 118//46 120//46
f 119//46 120//46 121//46
f 121//47 120//47 122//47
f 121//47 122//47 123//47
f 123//48 122//48 124//48
f 123//48 124//48 125//48
f 125//49 124//49 126//49
f 125//49 126//49 127//49
f 127//50 126//50 128//50
f 127//50 128//50 129//50
f 129//51 128//51 130//51
f 129//51 130//51 131//51
f 131//52 130//52 132//52
f 131//52 132//52 133//52
f 133//53 132//53 134//53
f 133//53 134//53 135//53
f 135//54 134//54 37//54
f 135//55 37//55 39//55
f 136//56 134//56 137//56
f 136//56 137//56 38//56
f 44//56 42//56 137//56
f 137//56 42//56 40//56
f 137//56 40//56 38//56
f 50//56 48//56 137//56
f 137//56 48//56 46//56
f 137//56 46//56 44//56
f 56//56 54//56 137//56
f 137//56 54//56 52//56
f 137//56 52//56 50//56
f 62//56 60//56 137//56
f 137//56 60//56 58//56
f 137//56 58//56 56//56
f 68//56 66//56 137//56
f 137//56 66//56 64//56
f 137//56 64//56 62//56
f 74//56 72//56 137//56
f 137//56 72//56 70//56
f 137//56 70//56 68//56
f 80//56 78//56 137//56
f 137//56 78//56 76//56
f 137//56 76//56 74//56
f 86//56 84//56 137//56
f 137//56 84//56 82//56
f 137//56 82//56 80//56
f 92//56 90//56 137//56
f 137//56 90//56 88//56
f 137//56 88//56 86//56
f 98//56 96//56 137//56
f 137//56 96//56 94//56
f 137//56 94//56 92//56
f 104//56 102//56 137//56
f 137//56 102//56 100//56
f 137//56 100//56 98//56
f 110//56 108//56 137//56
f 137//56 108//56 106//56
f 137//56 106//56 104//56
f 116//56 114//56 137//56
f 137//56 114//56 112//56
f 137//56 112//56 110//56
f 122//56 120//56 137//56
f 137//56 120//56 118//56
f 137//56 118//56 116//56
f 128//56 126//56 137//56
f 137//56 126//56 124//56
f 137//56 124//56 122//56
f 134//56 132//56 137//56
f 137//56 132//56 130//56
f 137//56 130//56 128//56
f 25//56 89//56 91//56
f 89//56 25//56 138//56
f 138//56 25//56 10//56
f 138//56 10//56 85//56
f 115//56 117//56 16//56
f 16//56 117//56 119//56
f 16//56 119//56 121//56
f 43//56 45//56 11//56
f 11//56 51//56 53//56
f 53//56 55//56 11//56
f 11//56 55//56 57//56
f 11//56 57//56 59//56
f 67//56 69//56 10//56
f 10//56 69//56 71//56
f 10//56 71//56 73//56
f 91//56 93//56 25//56
f 25//56 93//56 95//56
f 25//56 95//56 97//56
f 107//56 25//56 105//56
f 105//56 25//56 103//56
f 121//56 123//56 16//56
f 16//56 123//56 125//56
f 16//56 125//56 127//56
f 127//56 129//56 16//56
f 16//56 129//56 131//56
f 16//56 131//56 133//56
f 133//56 135//56 16//56
f 16//56 135//56 39//56
f 16//56 39//56 11//56
f 11//56 39//56 41//56
f 11//56 41//56 43//56
f 45//56 47//56 11//56
f 11//56 47//56 49//56
f 11//56 49//56 51//56
f 97//56 99//56 25//56
f 25//56 99//56 101//56
f 25//56 101//56 103//56
f 107//56 109//56 25//56
f 25//56 109//56 111//56
f 25//56 111//56 16//56
f 16//56 111//56 113//56
f 16//56 113//56 115//56
f 59//56 61//56 11//56
f 11//56 61//56 63//56
f 11//56 63//56 10//56
f 10//56 63//56 65//56
f 10//56 65//56 67//56
f 73//56 75//56 10//56
f 10//56 75//56 77//56
f 10//56 77//56 79//56
f 79//56 81//56 10//56
f 10//56 81//56 83//56
f 10//56 83//56 85//56
f 139//57 9//57 140//57
f 140//57 9//57 23//57
f 140//57 23//57 141//57
f 139//57 142//57 9//57
f 9//57 142//57 143//57
f 9//57 143//57 144//57
f 144//57 145//57 9//57
f 9//57 145//57 146//57
f 9//57 146//57 147//57
f 148//57 6//57 149//57
f 149//57 6//57 150//57
f 148//57 151//57 6//57
f 6//57 151//57 152//57
f 6//57 152//57 153//57
f 14//57 154//57 155//57
f 156//57 157//57 14//57
f 14//57 157//57 158//57
f 155//57 159//57 14//57
f 14//57 159//57 160//57
f 14//57 160//57 161//57
f 161//57 162//57 14//57
f 14//57 162//57 163//57
f 14//57 163//57 23//57
f 23//57 163//57 164//57
f 23//57 164//57 165//57
f 147//57 166//57 9//57
f 9//57 166//57 167//57
f 9//57 167//57 168//57
f 158//57 169//57 14//57
f 14//57 169//57 170//57
f 14//57 170//57 154//57
f 153//57 171//57 6//57
f 6//57 171//57 172//57
f 6//57 172//57 173//57
f 165//57 174//57 23//57
f 23//57 174//57 175//57
f 23//57 175//57 176//57
f 168//57 177//57 9//57
f 9//57 177//57 178//57
f 9//57 178//57 6//57
f 6//57 178//57 179//57
f 6//57 179//57 150//57
f 173//57 180//57 6//57
f 6//57 180//57 181//57
f 6//57 181//57 14//57
f 14//57 181//57 182//57
f 14//57 182//57 156//57
f 176//57 183//57 23//57
f 23//57 183//57 184//57
f 23//57 184//57 185//57
f 185//57 186//57 23//57
f 23//57 186//57 187//57
f 23//57 187//57 141//57
f 188//57 189//57 190//57
f 188//57 190//57 191//57
f 192//57 193//57 190//57
f 190//57 193//57 194//57
f 190//57 194//57 191//57
f 195//57 196//57 190//57
f 190//57 196//57 197//57
f 190//57 197//57 192//57
f 198//57 199//57 190//57
f 190//57 199//57 200//57
f 190//57 200//57 195//57
f 201//57 202//57 190//57
f 190//57 202//57 203//57
f 190//57 203//57 198//57
f 204//57 205//57 190//57
f 190//57 205//57 206//57
f 190//57 206//57 201//57
f 207//57 208//57 190//57
f 190//57 208//57 209//57
f 190//57 209//57 204//57
f 210//57 211//57 190//57
f 190//57 211//57 212//57
f 190//57 212//57 207//57
f 213//57 214//57 190//57
f 190//57 214//57 215//57
f 190//57 215//57 210//57
f 216//57 217//57 190//57
f 190//57 217//57 218//57
f 190//57 218//57 213//57
f 219//57 220//57 190//57
f 190//57 220//57 221//57
f 190//57 221//57 216//57
f 222//57 223//57 190//57
f 190//57 223//57 224//57
f 190//57 224//57 219//57
f 225//57 226//57 190//57
f 190//57 226//57 227//57
f 190//57 227//57 222//57
f 228//57 229//57 190//57
f 190//57 229//57 230//57
f 190//57 230//57 225//57
f 231//57 232//57 190//57
f 190//57 232//57 233//57
f 190//57 233//57 228//57
f 234//57 235//57 190//57
f 190//57 235//57 236//57
f 190//57 236//57 231//57
f 189//57 237//57 190//57
f 190//57 237//57 238//57
f 190//57 238//57 234//57
f 239//54 191//54 182//54
f 182//53 191//53 194//53
f 182//53 194//53 156//53
f 156//52 194//52 193//52
f 156//52 193//52 157//52
f 157//51 193//51 192//51
f 157//51 192//51 158//51
f 158//50 192//50 197//50
f 158//50 197//50 169//50
f 169//49 197//49 196//49
f 169//49 196//49 170//49
f 170//48 196//48 195//48
f 170//48 195//48 154//48
f 154//47 195//47 200//47
f 154//47 200//47 155//47
f 155//46 200//46 199//46
f 155//46 199//46 159//46
f 159//45 199//45 198//45
f 159//45 198//45 160//45
f 160//44 198//44 203//44
f 160//44 203//44 161//44
f 161//43 203//43 202//43
f 161//43 202//43 162//43
f 162//42 202//42 201//42
f 162//42 201//42 163//42
f 163//41 201//41 206//41
f 163//41 206//41 164//41
f 164//40 206//40 205//40
f 164//40 205//40 165//40
f 165//39 205//39 204//39
f 165//39 204//39 174//39
f 174//38 204//38 209//38
f 174//38 209//38 175//38
f 175//37 209//37 208//37
f 175//37 208//37 176//37
f 176//36 208//36 207//36
f 176//36 207//36 183//36
f 183//35 207//35 212//35
f 183//35 212//35 184//35
f 184//34 212//34 211//34
f 184//34 211//34 185//34
f 185//33 211//33 210//33
f 185//33 210//33 186//33
f 186//32 210//32 215//32
f 186//32 215//32 187//32
f 187//31 215//31 214//31
f 187//31 214//31 141//31
f 141//30 214//30 213//30
f 141//30 213//30 140//30
f 140//29 213//29 218//29
f 140//29 218//29 139//29
f 139//28 218//28 217//28
f 139//28 217//28 142//28
f 142//27 217//27 216//27
f 142//27 216//27 143//27
f 143//26 216//26 221//26
f 143//26 221//26 144//26
f 144//25 221//25 220//25
f 144//25 220//25 145//25
f 145//24 220//24 219//24
f 145//24 219//24 146//24
f 146//23 219//23 224//23
f 146//23 224//23 147//23
f 147//22 224//22 223//22
f 147//22 223//22 166//22
f 166//21 223//21 222//21
f 166//21 222//21 167//21
f 167//20 222//20 227//20
f 167//20 227//20 168//20
f 168//19 227//19 226//19
f 168//19 226//19 177//19
f 177//18 226//18 225//18
f 177//18 225//18 178//18
f 178//17 225//17 230//17
f 178//17 230//17 179//17
f 179//16 230//16 229//16
f 179//16 229//16 150//16
f 150//15 229//15 228//15
f 150//15 228//15 149//15
f 149//14 228//14 233//14
f 149//14 233//14 148//14
f 148//13 233//13 232//13
f 148//13 232//13 151//13
f 151//12 232//12 231//12
f 151//12 231//12 152//12
f 152//11 231//11 236//11
f 152//11 236//11 153//11
f 153//10 236//10 235//10
f 153//10 235//10 171//10
f 171//9 235//9 234//9
f 171//9 234//9 172//9
f 172//8 234//8 238//8
f 172//8 238//8 173//8
f 173//7 238//7 237//7
f 173//7 237//7 180//7
f 180//6 237//6 189//6
f 180//6 189//6 181//6
f 181//5 189//5 239//5
f 181//58 239//58 182//58
f 240//59 241//59 32//59
f 32//59 241//59 242//59
f 243//60 240//60 31//60
f 31//60 240//60 32//60
f 244//61 243//61 30//61
f 30//61 243//61 31//61
f 245//60 244//60 36//60
f 36//60 244//60 30//60
f 246//62 245//62 35//62
f 35//62 245//62 36//62
f 247//60 246//60 34//60
f 34//60 246//60 35//60
f 248//63 247//63 249//63
f 249//63 247//63 34//63
f 246//4 247//4 250//4
f 250//4 240//4 243//4
f 250//4 243//4 246//4
f 246//4 243//4 244//4
f 246//4 244//4 245//4
f 251//64 252//64 24//64
f 24//64 252//64 253//64
f 254//65 251//65 26//65
f 26//65 251//65 24//65
f 255//66 254//66 27//66
f 27//66 254//66 26//66
f 256//65 255//65 28//65
f 28//65 255//65 27//65
f 257//67 256//67 29//67
f 29//67 256//67 28//67
f 258//65 257//65 22//65
f 22//65 257//65 29//65
f 259//68 258//68 260//68
f 260//68 258//68 22//68
f 257//3 258//3 261//3
f 261//3 251//3 254//3
f 261//3 254//3 257//3
f 257//3 254//3 255//3
f 257//3 255//3 256//3
f 262//69 263//69 15//69
f 15//69 263//69 264//69
f 265//70 262//70 17//70
f 17//70 262//70 15//70
f 266//71 265//71 18//71
f 18//71 265//71 17//71
f 267//70 266//70 19//70
f 19//70 266//70 18//70
f 268//72 267//72 20//72
f 20//72 267//72 19//72
f 269//70 268//70 13//70
f 13//70 268//70 20//70
f 270//73 269//73 271//73
f 271//73 269//73 13//73
f 268//2 269//2 272//2
f 272//2 262//2 265//2
f 272//2 265//2 268//2
f 268//2 265//2 266//2
f 268//2 266//2 267//2
f 273//74 274//74 3//74
f 3//74 274//74 275//74
f 276//75 273//75 2//75
f 2//75 273//75 3//75
f 277//76 276//76 1//76
f 1//76 276//76 2//76
f 278//75 277//75 8//75
f 8//75 277//75 1//75
f 279//77 278//77 7//77
f 7//77 278//77 8//77
f 280//75 279//75 5//75
f 5//75 279//75 7//75
f 281//78 280//78 282//78
f 282//78 280//78 5//78
f 279//1 280//1 283//1
f 283//1 273//1 276//1
f 283//1 276//1 279//1
f 279//1 276//1 277//1
f 279//1 277//1 278//1
