# Blender v2.91.2 OBJ File: ''
# www.blender.org
mtllib prescribedRotation2.mtl
o Cone.006
v 0.000007 0.130991 -0.052418
v 0.000007 -0.000053 -0.000017
v -0.045373 0.130991 -0.026218
v -0.045373 0.130991 0.026183
v 0.000007 0.130991 0.052383
v 0.045387 0.130991 0.026183
v 0.045387 0.130991 -0.026218
vt 0.250000 0.490000
vt 0.250000 0.250000
vt 0.457846 0.370000
vt 0.457846 0.130000
vt 0.250000 0.010000
vt 0.042154 0.130000
vt 0.750000 0.490000
vt 0.957846 0.370000
vt 0.957846 0.130000
vt 0.750000 0.010000
vt 0.542154 0.130000
vt 0.542154 0.370000
vt 0.042154 0.370000
vn -0.4725 -0.3272 -0.8183
vn -0.9449 -0.3272 0.0000
vn -0.4725 -0.3272 0.8183
vn 0.4725 -0.3272 0.8183
vn 0.0000 1.0000 0.0000
vn 0.9449 -0.3272 0.0000
vn 0.4725 -0.3272 -0.8183
usemtl None.002
s 1
f 1/1/1 2/2/1 3/3/1
f 3/3/2 2/2/2 4/4/2
f 4/4/3 2/2/3 5/5/3
f 5/5/4 2/2/4 6/6/4
f 1/7/5 3/8/5 4/9/5 5/10/5 6/11/5 7/12/5
f 6/6/6 2/2/6 7/13/6
f 7/13/7 2/2/7 1/1/7
o Cone.001_Cone.002
v 0.000007 0.130991 -0.052418
v 0.000007 -0.000053 -0.000017
v -0.045373 0.130991 -0.026218
v -0.045373 0.130991 0.026183
v 0.000007 0.130991 0.052383
v 0.045387 0.130991 0.026183
v 0.045387 0.130991 -0.026218
vt 0.250000 0.490000
vt 0.250000 0.250000
vt 0.457846 0.370000
vt 0.457846 0.130000
vt 0.250000 0.010000
vt 0.042154 0.130000
vt 0.750000 0.490000
vt 0.957846 0.370000
vt 0.957846 0.130000
vt 0.750000 0.010000
vt 0.542154 0.130000
vt 0.542154 0.370000
vt 0.042154 0.370000
vn -0.4725 -0.3272 -0.8183
vn -0.9449 -0.3272 0.0000
vn -0.4725 -0.3272 0.8183
vn 0.4725 -0.3272 0.8183
vn 0.0000 1.0000 0.0000
vn 0.9449 -0.3272 0.0000
vn 0.4725 -0.3272 -0.8183
usemtl None.002
s 1
f 8/14/8 9/15/8 10/16/8
f 10/16/9 9/15/9 11/17/9
f 11/17/10 9/15/10 12/18/10
f 12/18/11 9/15/11 13/19/11
f 8/20/12 10/21/12 11/22/12 12/23/12 13/24/12 14/25/12
f 13/19/13 9/15/13 14/26/13
f 14/26/14 9/15/14 8/14/14
o Cone.002_Cone.003
v 0.000007 0.224197 -0.052418
v 0.000007 0.093153 -0.000017
v -0.045373 0.224197 -0.026218
v -0.045373 0.224197 0.026183
v 0.000007 0.224197 0.052383
v 0.045387 0.224197 0.026183
v 0.045387 0.224197 -0.026218
vt 0.250000 0.490000
vt 0.250000 0.250000
vt 0.457846 0.370000
vt 0.457846 0.130000
vt 0.250000 0.010000
vt 0.042154 0.130000
vt 0.750000 0.490000
vt 0.957846 0.370000
vt 0.957846 0.130000
vt 0.750000 0.010000
vt 0.542154 0.130000
vt 0.542154 0.370000
vt 0.042154 0.370000
vn -0.4725 -0.3272 -0.8183
vn -0.9449 -0.3272 0.0000
vn -0.4725 -0.3272 0.8183
vn 0.4725 -0.3272 0.8183
vn 0.0000 1.0000 0.0000
vn 0.9449 -0.3272 0.0000
vn 0.4725 -0.3272 -0.8183
usemtl None.002
s 1
f 15/27/15 16/28/15 17/29/15
f 17/29/16 16/28/16 18/30/16
f 18/30/17 16/28/17 19/31/17
f 19/31/18 16/28/18 20/32/18
f 15/33/19 17/34/19 18/35/19 19/36/19 20/37/19 21/38/19
f 20/32/20 16/28/20 21/39/20
f 21/39/21 16/28/21 15/27/21
